<svg xmlns="http://www.w3.org/2000/svg">
<defs>
<font id="DKGamboge-Regular" horiz-adv-x="529" >
  <font-face 
    font-family="DK Gamboge"
    font-weight="400"
    font-stretch="normal"
    units-per-em="1000"
    panose-1="0 0 0 0 0 0 0 0 0 0"
    ascent="800"
    descent="-200"
    x-height="680.5"
    cap-height="690.5"
    bbox="-44 -215 726 903"
    underline-thickness="0"
    underline-position="0"
    unicode-range="U+000D-20AC"
  />
<missing-glyph horiz-adv-x="547" 
d="M233 229q3 29 1 84l3 53q0 1 -8.5 2.5t-18.5 5.5t-12 13q-2 14 -11 15q-4 1 -11 0t-10 -1q-1 0 -10.5 4.5t-19 8.5t-10.5 5t-1 3h-2h-1q-2 1 -10 7t-11 9q0 3 -5 8l1 2h-1q-3 0 -13.5 -14.5t-20.5 -13.5q2 5 -5 5l3 7h-1l-1 -1l-2 -2l-6 2q-11 6 -17 18l-3 5q0 2 3.5 3.5
t3.5 2.5l-3 4q-4 4 -4 8v3q1 3 1 5q1 10 12 24q3 7 6 6l1 -1v4q-1 1 -1 2q3 5 18 5l14 2v1q-18 27 -19 50q-2 7 -2 8v1q7 0 12 2.5t10.5 10t7.5 9.5q3 3 8.5 4.5t7.5 3.5q1 0 1 3l4 4q1 3 9 11q2 2 4 6.5t4.5 6.5t8.5 1q4 0 12.5 -2t13.5 -3q1 3 -2 7t-3 6t3 4.5t3 3.5
q0 2 -4 10.5t-3 14.5q3 17 30 33q8 2 16 2q0 4 1 5l4 2l42 -5q34 -5 57 -29q3 -2 20 -25q0 -1 3 -6t4 -5l4 -5l5 -1q1 0 3 -1.5t3 -1.5v-1l3 1q2 2 4.5 3.5t3.5 1.5q25 3 34 0q0 4 4 2h1q0 -1 -1 -3v-1q2 1 3 1t2.5 -1.5t2.5 -1.5q2 2 4 2l1 -1v-1h8q8 2 10 2h2q0 -1 1 -2
t1 -2h5l-2 -2h2l5 1q3 0 9 -4q-4 -4 -4 -10v-2l2 -2q16 -32 15 -41q-1 -2 -3 -4.5t-3 -4.5q0 -1 1 -3t0 -4q0 -3 -4.5 -6t-4.5 -5q0 -5 14 -10l17 -16q-1 -1 6 -5l3 -2l2 -5q2 -3 8.5 -7.5t8.5 -8.5q1 0 1 -1t-1 -2q7 -11 6 -16q0 -3 -2 -4q3 -1 3 -20q-5 -32 -47 -62l-1 -1
h-2q-21 -7 -34 -5q-9 1 -43 17q0 1 -4.5 3t-5.5 2q-1 1 -4 3t-4 3l-11 7q-1 0 -5 1.5t-5 1.5l-9 3q-1 0 -13 6l-6 3v1q-4 0 -6 -2q1 -2 6 -5l5 -3q9 -4 27.5 -14.5t33 -18t28.5 -12.5q13 -4 38.5 -10.5t38.5 -11.5q3 0 3 -5q-3 -14 -14 -23q-32 -32 -71 -26q-23 3 -38 29
q-2 2 -4 7.5t-4.5 9.5t-6.5 4q-4 1 -12 0t-10 -1q-1 -1 -7 -1h-6l-3 -1q-3 -1 -4 -1q-3 -1 -11 -1h-3q-3 -1 -4 -1q-19 0 -47 5l-1 -2q-2 0 -2 -11q-1 -1 -1.5 -4.5t-0.5 -4.5q-3 -18 -2 -56t-1 -56l-22 -162q-5 -20 -5 -56l-3 -17l-9 1q6 80 28 233zM442 649q1 0 1 -1.5

<glyph glyph-name=".notdef" horiz-adv-x="547" 
d="M233 229q3 29 1 84l3 53q0 1 -8.5 2.5t-18.5 5.5t-12 13q-2 14 -11 15q-4 1 -11 0t-10 -1q-1 0 -10.5 4.5t-19 8.5t-10.5 5t-1 3h-2h-1q-2 1 -10 7t-11 9q0 3 -5 8l1 2h-1q-3 0 -13.5 -14.5t-20.5 -13.5q2 5 -5 5l3 7h-1l-1 -1l-2 -2l-6 2q-11 6 -17 18l-3 5q0 2 3.5 3.5
t3.5 2.5l-3 4q-4 4 -4 8v3q1 3 1 5q1 10 12 24q3 7 6 6l1 -1v4q-1 1 -1 2q3 5 18 5l14 2v1q-18 27 -19 50q-2 7 -2 8v1q7 0 12 2.5t10.5 10t7.5 9.5q3 3 8.5 4.5t7.5 3.5q1 0 1 3l4 4q1 3 9 11q2 2 4 6.5t4.5 6.5t8.5 1q4 0 12.5 -2t13.5 -3q1 3 -2 7t-3 6t3 4.5t3 3.5
q0 2 -4 10.5t-3 14.5q3 17 30 33q8 2 16 2q0 4 1 5l4 2l42 -5q34 -5 57 -29q3 -2 20 -25q0 -1 3 -6t4 -5l4 -5l5 -1q1 0 3 -1.5t3 -1.5v-1l3 1q2 2 4.5 3.5t3.5 1.5q25 3 34 0q0 4 4 2h1q0 -1 -1 -3v-1q2 1 3 1t2.5 -1.5t2.5 -1.5q2 2 4 2l1 -1v-1h8q8 2 10 2h2q0 -1 1 -2
t1 -2h5l-2 -2h2l5 1q3 0 9 -4q-4 -4 -4 -10v-2l2 -2q16 -32 15 -41q-1 -2 -3 -4.5t-3 -4.5q0 -1 1 -3t0 -4q0 -3 -4.5 -6t-4.5 -5q0 -5 14 -10l17 -16q-1 -1 6 -5l3 -2l2 -5q2 -3 8.5 -7.5t8.5 -8.5q1 0 1 -1t-1 -2q7 -11 6 -16q0 -3 -2 -4q3 -1 3 -20q-5 -32 -47 -62l-1 -1
h-2q-21 -7 -34 -5q-9 1 -43 17q0 1 -4.5 3t-5.5 2q-1 1 -4 3t-4 3l-11 7q-1 0 -5 1.5t-5 1.5l-9 3q-1 0 -13 6l-6 3v1q-4 0 -6 -2q1 -2 6 -5l5 -3q9 -4 27.5 -14.5t33 -18t28.5 -12.5q13 -4 38.5 -10.5t38.5 -11.5q3 0 3 -5q-3 -14 -14 -23q-32 -32 -71 -26q-23 3 -38 29
q-2 2 -4 7.5t-4.5 9.5t-6.5 4q-4 1 -12 0t-10 -1q-1 -1 -7 -1h-6l-3 -1q-3 -1 -4 -1q-3 -1 -11 -1h-3q-3 -1 -4 -1q-19 0 -47 5l-1 -2q-2 0 -2 -11q-1 -1 -1.5 -4.5t-0.5 -4.5q-3 -18 -2 -56t-1 -56l-22 -162q-5 -20 -5 -56l-3 -17l-9 1q6 80 28 233zM442 649q1 0 1 -1.5
t-1 -1.5q-2 0 -2 1.5t2 1.5zM62 426q-1 0 -1 -1t1 -1v2zM240 720q-1 0 -1 -1.5t1 -1.5t1 1.5t-1 1.5zM230 377l-2 -4h1zM48 513q1 0 1 -1t-1 -1t-1 1t1 1zM402 651q-1 0 -1 -1t1 -1t1 1t-1 1zM430 647v-1h1v1h-1zM52 505v-1v1z" />
    <glyph glyph-name=".null" horiz-adv-x="0" 
 />
    <glyph glyph-name="nonmarkingreturn" horiz-adv-x="333" 
 />
    <glyph glyph-name="NULL" horiz-adv-x="0" 
 />
    <glyph glyph-name="NULL" horiz-adv-x="0" 
 />
    <glyph glyph-name="CR" unicode="&#xd;" horiz-adv-x="250" 
 />
    <glyph glyph-name="space" unicode=" " horiz-adv-x="250" 
 />
    <glyph glyph-name="exclam" unicode="!" horiz-adv-x="188" 
d="M158 641l-35 -455l-60 -2l-32 450q-5 36 26 54t65 5t36 -52zM96 1q-36 0 -49.5 26t3.5 53t54 29q17 -1 30 -12t17.5 -27t2 -31.5t-17.5 -26.5t-40 -11z" />
    <glyph glyph-name="quotedbl" unicode="&#x22;" horiz-adv-x="327" 
d="M89 699q19 0 32.5 -10t19.5 -30t3 -46.5t-20.5 -62t-48.5 -74.5q10 39 13 57.5t1 33t-12 22.5q-19 2 -31 13.5t-14 27t2.5 30.5t19 26.5t35.5 12.5zM240 710q19 0 32.5 -10t19.5 -30t3 -46.5t-20.5 -62t-48.5 -74.5q10 39 13 57.5t1 33t-12 22.5q-19 2 -31 13.5t-14 27
t2.5 30.5t19 26.5t35.5 12.5z" />
    <glyph glyph-name="dollar" unicode="$" horiz-adv-x="419" 
d="M171 733q1 22 11 37t23 15q33 0 35 -93q69 12 118 -41q39 -43 30 -85q-6 -32 -42 -41q-19 -5 -32 1.5t-18 15.5t-11 25q-12 34 -38.5 37.5t-46 -17.5t-12.5 -45q9 -33 56 -99t89 -136.5t46 -122.5q10 -142 -115 -172q0 -2 0.5 -13t0 -17t-1 -17t-3 -17.5t-6.5 -13.5
t-10.5 -10.5t-15.5 -3.5h-2q-31 2 -31 77v6q-36 0 -55 1q-50 4 -82.5 29t-26.5 66q0 78 54 78q25 0 33 -12.5t11 -37.5q0 -1 0.5 -3.5t0.5 -3.5q5 -31 28 -41t45.5 3t26.5 40q5 32 -23.5 83.5t-66 99.5t-69.5 108.5t-32 105.5q-1 137 132 166v48z" />
    <glyph glyph-name="quotesingle" unicode="'" horiz-adv-x="176" 
d="M89 699q19 0 32.5 -10t19.5 -30t3 -46.5t-20.5 -62t-48.5 -74.5q10 39 13 57.5t1 33t-12 22.5q-19 2 -31 13.5t-14 27t2.5 30.5t19 26.5t35.5 12.5z" />
    <glyph glyph-name="parenleft" unicode="(" horiz-adv-x="267" 
d="M198 12q-77 44 -121 135t-47 187.5t36.5 188.5t116.5 138q45 28 52 9q2 -8 -1 -20q-55 -65 -78 -185.5t-6.5 -238.5t66.5 -178q23 -22 19 -33t-37 -3z" />
    <glyph glyph-name="parenright" unicode=")" horiz-adv-x="267" 
d="M69 12q-33 -8 -37 3t19 33q50 60 66.5 178t-6.5 238.5t-78 185.5q-9 29 13 26q16 -1 38 -15q77 -46 116.5 -138t36.5 -188.5t-47 -187.5t-121 -135z" />
    <glyph glyph-name="comma" unicode="," horiz-adv-x="170" 
d="M86 99q18 0 31 -9t18.5 -27.5t3 -42.5t-19.5 -56.5t-46 -67.5q9 36 12 52t1.5 30t-11.5 21q-30 3 -40.5 27t4 47.5t47.5 25.5z" />
    <glyph glyph-name="hyphen" unicode="-" horiz-adv-x="344" 
d="M30 348q0 23 15 32.5t44 11.5t89 2q58 -1 94 0q42 0 42 -49q0 -18 -9.5 -27t-21.5 -9q-35 0 -104 -1t-105 -1q-44 0 -44 41z" />
    <glyph glyph-name="period" unicode="." horiz-adv-x="174" 
d="M85 -1q-36 0 -49.5 26t3.5 53t54 29q17 -1 30 -12t17.5 -27t2 -31.5t-17.5 -26.5t-40 -11z" />
    <glyph glyph-name="slash" unicode="/" horiz-adv-x="268" 
d="M137 623q10 42 32 59.5t42 5.5t25 -46q1 -7 1 -14.5t-1 -20t-3.5 -26t-7 -39t-10 -52t-14.5 -72t-18.5 -92t-24 -118t-28.5 -145.5q-7 -33 -29 -49.5t-43 -5.5t-26 47q-5 34 10 94v3q6 34 39 180.5t56 290.5z" />
    <glyph glyph-name="zero" unicode="0" horiz-adv-x="523" 
d="M31 356q2 150 65.5 244t185.5 94q48 0 85.5 -20.5t60.5 -53.5t38 -79t20.5 -92.5t5.5 -98.5q0 -73 -12 -132.5t-38.5 -109t-74 -77t-112.5 -27.5q-61 0 -107.5 34.5t-70.5 90t-35 113t-11 114.5zM267 624q-41 0 -62.5 -83.5t-20 -185t18.5 -186.5t43 -88q49 -14 76 75
q32 108 19 272q-13 153 -55 188q-9 8 -19 8z" />
    <glyph glyph-name="one" unicode="1" horiz-adv-x="197" 
d="M34 38q-6 18 -2 296t4 309q-2 26 30 42t65.5 5.5t35.5 -49.5l-5 -607q-6 -30 -73 -30q-50 0 -55 34z" />
    <glyph glyph-name="two" unicode="2" horiz-adv-x="416" 
d="M79 525q-49 12 -40 60q7 39 50.5 72.5t102.5 34.5q79 2 136.5 -43t57.5 -130q0 -43 -20.5 -88.5t-49.5 -85t-58 -79.5t-49.5 -85.5t-19.5 -88.5l150 1q17 0 29 -13t12 -30q0 -31 -38 -38q-215 -7 -284 -2q-26 48 -27 99.5t16 95t44.5 92t56 87t54.5 82t35 76.5
q7 24 -12.5 45t-46 17.5t-38.5 -37.5q-6 -16 -11 -25t-18 -15.5t-32 -1.5z" />
    <glyph glyph-name="three" unicode="3" horiz-adv-x="430" 
d="M175 81q40 -2 63 39.5t2.5 106t-93.5 116.5q-9 4 -9.5 18.5t5.5 18.5q26 18 44.5 46.5t25.5 50.5t14 54q8 34 -11.5 55.5t-46 17t-36.5 -36.5q-5 -17 -10 -25.5t-17.5 -15t-32.5 -1.5q-49 12 -42 60q7 39 49 72.5t101 34.5q78 2 133.5 -41.5t58.5 -128.5q3 -104 -87 -177
q62 -44 91 -94.5t22.5 -95t-35 -81t-83 -57t-121.5 -17.5q-42 2 -70.5 19t-50.5 58q-14 53 1.5 77.5t49.5 22.5q28 -1 40 -16t11.5 -32.5t7 -32t26.5 -15.5z" />
    <glyph glyph-name="six" unicode="6" horiz-adv-x="483" 
d="M167 401q65 26 123.5 22.5t102 -46t55.5 -114.5q22 -138 -58 -214q-65 -60 -155 -48q-98 13 -155 104q-54 87 -49 220q3 92 28 173.5t70.5 138.5t110.5 64t149 -50q38 -30 21.5 -69t-57.5 -44q-16 -2 -30.5 11.5t-24.5 29.5t-21.5 28t-27 6t-34.5 -36q-10 -15 -23 -59.5
t-20.5 -81t-4.5 -35.5zM208 299q-24 -13 -28 -49.5t8 -72t38.5 -59t56.5 -12.5q28 10 35 65.5t-22 100t-88 27.5z" />
    <glyph glyph-name="seven" unicode="7" horiz-adv-x="397" 
d="M122 703l231 -6q12 -3 14 -26.5t-5.5 -61t-20.5 -85t-31.5 -101t-38 -107.5t-40 -106t-37.5 -93.5t-31 -74.5q-10 -23 -40 -35t-54.5 1t-19.5 52l198 538q-157 2 -174 5q-33 6 -39 28q-9 35 10 55t78 17z" />
    <glyph glyph-name="eight" unicode="8" horiz-adv-x="506" 
d="M144 345q-90 73 -87 177q3 85 58.5 128.5t133.5 41.5q84 2 140.5 -41t59.5 -129q3 -104 -87 -177q60 -43 89 -92.5t24.5 -93t-31 -80t-77.5 -58t-115 -21.5q-79 0 -136 33.5t-77 83t5.5 112.5t99.5 116zM254 81q24 -2 45.5 13.5t31.5 42.5t9.5 58t-23 65t-64.5 58
q-42 -26 -64 -59t-22 -63.5t11 -57t32 -42t44 -15.5zM253 411q16 -1 32 18.5t23.5 47.5t7 56.5t-16.5 49t-47 21.5q-27 1 -44 -18t-20 -47t2 -57t22.5 -49.5t40.5 -21.5z" />
    <glyph glyph-name="nine" unicode="9" horiz-adv-x="483" 
d="M316 300q-65 -26 -123.5 -22.5t-102 46t-55.5 114.5q-22 138 58 214q65 60 155 48q98 -13 155 -104q54 -87 49 -220q-3 -92 -28 -173.5t-70.5 -138.5t-110.5 -64t-149 50q-38 30 -21.5 69t57.5 44q16 2 30.5 -11.5t24.5 -29.5t21.5 -28t27 -6t34.5 36q10 15 23 59.5
t20.5 81t4.5 35.5zM275 402q24 13 28 49.5t-8 72t-38.5 59t-56.5 12.5q-28 -10 -35 -65.5t22 -100t88 -27.5z" />
    <glyph glyph-name="colon" unicode=":" horiz-adv-x="174" 
d="M85 400q-36 0 -49.5 26t3.5 53t54 29q17 -1 30 -12t17.5 -27t2 -31.5t-17.5 -26.5t-40 -11zM85 -1q-36 0 -49.5 26t3.5 53t54 29q17 -1 30 -12t17.5 -27t2 -31.5t-17.5 -26.5t-40 -11z" />
    <glyph glyph-name="semicolon" unicode=";" horiz-adv-x="174" 
d="M85 400q-36 0 -49.5 26t3.5 53t54 29q17 -1 30 -12t17.5 -27t2 -31.5t-17.5 -26.5t-40 -11zM86 99q18 0 31 -9t18.5 -27.5t3 -42.5t-19.5 -56.5t-46 -67.5q9 36 12 52t1.5 30t-11.5 21q-30 3 -40.5 27t4 47.5t47.5 25.5z" />
    <glyph glyph-name="question" unicode="?" horiz-adv-x="409" 
d="M72 525q-49 12 -40 60q7 39 50.5 72.5t102.5 34.5q79 2 136.5 -43t57.5 -130q0 -36 -20.5 -63.5t-49 -48.5t-57 -47.5t-46 -73.5t-13.5 -112h-62q-39 44 -46 87t12.5 79.5t44.5 68.5t52.5 68.5t35.5 64.5q7 24 -12.5 45t-46 17.5t-38.5 -37.5q-6 -16 -11 -25t-18 -15.5
t-32 -1.5zM162 3q-36 0 -49.5 26t3.5 53t54 29q17 -1 30 -12t17.5 -27t2 -31.5t-17.5 -26.5t-40 -11z" />
    <glyph glyph-name="at" unicode="@" horiz-adv-x="673" 
d="M288 533h14q58 0 95 -33.5t41 -93.5q-2 -77 17 -137q26 -85 79 -10q17 65 9.5 134t-30 127t-70.5 95t-112 37q-52 0 -95 -32.5t-66.5 -85t-35.5 -115.5t-3 -126t31.5 -115.5t69 -85t107.5 -32.5q62 0 110 42q39 21 64.5 13.5t25.5 -31.5q-85 -88 -208 -88q-63 0 -116 24
t-88 64.5t-60.5 93.5t-31.5 111t-2 116t27.5 111t58.5 93.5t89.5 64.5t121.5 24q78 0 139.5 -28.5t98 -76t56.5 -108t19.5 -125t-19.5 -126.5q-17 -34 -62.5 -47.5t-97 1t-83.5 52.5q-36 -24 -88 -24q-96 0 -96 107q0 35 21 56t43.5 26.5t47.5 5.5q24 0 47 -8
q-6 24 -23.5 39.5t-43.5 15.5q-7 0 -21.5 -5.5t-22.5 -5.5q-24 0 -24 31v4q0 15 3 23t18 16t46 12zM350 331h-48q-31 0 -31 -12q0 -10 12 -15.5t25 -5.5q42 0 42 33z" />
    <glyph glyph-name="A" unicode="A" horiz-adv-x="525" 
d="M342 193l-141 2l-36 -137q-4 -34 -32 -48t-57 -6.5t-37 28.5q-9 25 27 167q-20 6 -28 14.5t-7 28.5q1 14 11.5 19.5t41.5 6.5q18 65 44 152.5t43.5 145t20.5 72.5q6 31 30.5 47t52 7.5t42.5 -40.5q24 -92 93.5 -307.5t84.5 -294.5q-3 -20 -14 -32t-24.5 -14t-27.5 1
t-24 12t-11 20l-51 156h-1zM267 441q-13 -43 -47 -175q58 -2 101 -2q-9 27 -17.5 54t-15 49t-12 39t-8 26t-1.5 9z" />
    <glyph glyph-name="B" unicode="B" horiz-adv-x="497" 
d="M466 152q-2 -33 -15 -58.5t-30 -41.5t-46 -27.5t-51.5 -17t-60.5 -8t-59.5 -2.5t-60.5 0.5t-52 0.5q-44 0 -61 26v414q0 89 4 217q3 8 8.5 14.5t14 10t15.5 5.5t19 3t18 1h19h16q61 0 94 -3t75 -22t71 -57q30 -37 30 -96q0 -105 -56 -158q62 -22 87 -77t21 -124zM174 312
l-4 -227q109 -21 146 44q27 49 -1 109q-28 62 -88 74q-26 6 -53 0zM178 596l-8 -199q54 -8 84.5 27.5t30.5 85.5q0 43 -23.5 66.5t-65.5 23.5h-15z" />
    <glyph glyph-name="C" unicode="C" horiz-adv-x="454" 
d="M30 362q0 82 25.5 154t85.5 122.5t146 50.5q22 0 33 -0.5t31 -3.5t29.5 -9.5t17.5 -20t7 -32.5q-1 -31 -13 -46t-31.5 -14t-35.5 5.5t-37 14t-24 10.5q-61 20 -91 -72q-31 -97 -12 -230q21 -141 83 -182q2 -2 4 -3q11 -8 24 -8q16 0 32 12.5t28 26.5t24.5 25t27.5 6.5
t32 -28.5q21 -29 -10 -65.5t-86.5 -57t-99.5 -9.5q-105 26 -147.5 118.5t-42.5 235.5z" />
    <glyph glyph-name="D" unicode="D" horiz-adv-x="475" 
d="M45 22q-5 50 -8 133t-4 153t-1.5 181t-1.5 165q2 25 14 35.5t37 10.5h5q48 0 82.5 -2t75 -9.5t67.5 -21t54.5 -37.5t43.5 -58t26 -84t10 -113q0 -62 -12 -121t-38 -115t-75 -93t-115 -42q-3 0 -8 -0.5t-7 -0.5q-128 -13 -145 19zM300 485q-2 19 -3 26.5l-3 22.5t-4 21.5
t-6 17.5t-9 15.5t-12.5 11t-17 9t-21.5 5t-27.5 2t-33.5 -2.5q11 -500 11 -525v-24q25 3 44.5 12t34 21t24.5 32.5t16.5 38t10 45.5t4.5 49t0.5 54t-2 53.5t-3.5 56.5l-3 54v5z" />
    <glyph glyph-name="E" unicode="E" horiz-adv-x="415" 
d="M82 69l5 118q0 71 -4 120q0 2 -13 5.5t-26.5 13t-13.5 27.5q0 21 24.5 30.5t27.5 15.5q4 179 3 288q11 14 37 14q30 0 90.5 2.5t90.5 2.5q3 0 20.5 -0.5t20.5 -0.5q40 -11 40 -33q0 -42 -52 -44q-64 -4 -110 -4q-4 0 -4 -4q-4 -16 -4 -217h141q11 0 20.5 -9.5t9.5 -20.5
q0 -17 -14 -33.5t-31 -16.5h-118l-4 -5q-4 2 -1 -158v-18l1 -35q4 -7 22 -7q11 0 35 2t36 2q62 0 62 -35q0 -33 -33 -43q-10 -1 -64.5 -4t-64.5 -3q-1 0 -10 -0.5t-20 -0.5h-16q-4 0 -23.5 0.5t-23.5 0.5q-16 4 -26 18t-10 32z" />
    <glyph glyph-name="F" unicode="F" horiz-adv-x="415" 
d="M88 50q0 167 -1 200l-4 57q0 2 -13 5.5t-26.5 13t-13.5 27.5q0 21 24.5 30.5t27.5 15.5q4 179 3 288q11 14 37 14q30 0 90.5 2.5t90.5 2.5q81 0 81 -34q0 -42 -52 -44q-64 -4 -110 -4q-4 0 -4 -4q-4 -16 -4 -217h141q11 0 20.5 -9.5t9.5 -20.5q0 -17 -14 -33t-31 -17
l-122 -5l-4 -273q0 -1 -1.5 -8t-4.5 -13.5t-12.5 -14.5t-26 -10t-45.5 1q-16 4 -26 18t-10 32z" />
    <glyph glyph-name="G" unicode="G" horiz-adv-x="507" 
d="M30 362q0 82 28.5 157.5t91.5 129.5t149 54q50 0 101 -24t51 -69q0 -20 -16.5 -46.5t-36.5 -26.5q-15 0 -26 13.5t-18 29t-24.5 29t-44.5 13.5q-37 0 -66 -26q-25 -21 -37.5 -56.5t-14.5 -62t-1 -70.5v-20q0 -97 4 -138q7 -61 20 -88.5t58 -54.5q11 -8 24 -8q10 0 20 8
q15 10 25.5 24.5t15.5 25t8 32t3.5 29.5t0 35.5t-0.5 32.5v23l-4 4h-81q-7 0 -13 12.5t-6 20.5q0 35 49 41q3 0 27.5 2.5t56.5 5t45 3.5h2q49 0 57 -29v-32q0 -116 -11 -183q-10 -59 -77.5 -96t-132.5 -37q-76 0 -137 56q-55 51 -72 120t-17 166z" />
    <glyph glyph-name="H" unicode="H" horiz-adv-x="566" 
d="M386 34q-7 80 -3 268q-33 -3 -147 -3l-2 -269q-6 -30 -82 -30q-56 0 -62 34q-7 80 -3 269h-5q-16 4 -23 6t-15.5 7t-11 12.5t-1.5 19.5q2 14 13 20t44 7q4 208 4 273q-2 27 34 43t74 5t40 -50l-3 -271h147q4 208 4 273q-2 27 34 43t74 5t40 -50l-6 -616q-6 -30 -82 -30
q-56 0 -62 34z" />
    <glyph glyph-name="I" unicode="I" horiz-adv-x="197" 
d="M34 38q-6 18 -2 296t4 309q-2 26 30 42t65.5 5.5t35.5 -49.5l-5 -607q-6 -30 -73 -30q-50 0 -55 34z" />
    <glyph glyph-name="J" unicode="J" horiz-adv-x="360" 
d="M177 -4q-48 0 -82 12.5t-54 51.5q-20 40 -3.5 70t54.5 30q21 0 26.5 -12t2 -27t4.5 -30t33 -19q16 -3 22.5 51.5t5 136.5t-5.5 165t-7 148t-1 75q-3 27 32 43t73.5 5t41.5 -50q3 -27 3 -54q11 -359 3 -447q-10 -103 -52 -131q-28 -18 -96 -18z" />
    <glyph glyph-name="K" unicode="K" horiz-adv-x="465" 
d="M422 654q-20 -43 -66.5 -150t-67.5 -155q21 -44 74.5 -150t68.5 -139q8 -25 -4 -40.5t-43 -28.5q-57 -27 -73 1l-130 287l-1 -222q0 -21 -7.5 -34.5t-21.5 -18t-22.5 -5.5t-21.5 -1h-3q-45 0 -63 26q-9 334 -10 612q-1 18 9.5 30t29 17.5t34 7.5t32.5 2q32 0 38 -47.5
t2 -281.5q19 39 56.5 116t65 134t30.5 64q7 16 30.5 21.5t44 -6.5t19.5 -39z" />
    <glyph glyph-name="L" unicode="L" horiz-adv-x="362" 
d="M35 678q6 34 62 34q76 0 82 -30q0 -515 3 -576q6 -2 31 -3t50.5 -2t28.5 -1q23 -3 34 -20.5t3.5 -36.5t-31.5 -25l-224 1q-16 0 -25.5 7.5t-13 23t-4 25t-0.5 28.5q0 28 -0.5 294.5t4.5 280.5z" />
    <glyph glyph-name="M" unicode="M" horiz-adv-x="652" 
d="M524 408q-125 -330 -190 -334q-39 -2 -82.5 67.5t-118.5 254.5q-1 2 -2.5 6t-2.5 6q-1 -33 5 -199.5t-4 -184.5q-17 -22 -49 -22q-33 0 -44 26q-7 91 -5.5 315.5t5.5 308.5q-1 20 20.5 30.5t43.5 10.5q25 0 43.5 -31.5t70.5 -141.5t116 -220q44 76 80 148.5t53.5 113
t33 73.5t27.5 45.5t28 12.5q22 0 43.5 -10.5t20.5 -30.5q4 -84 5.5 -308.5t-5.5 -315.5q-11 -26 -44 -26q-32 0 -49 22q-10 18 -4 184.5t5 199.5z" />
    <glyph glyph-name="N" unicode="N" horiz-adv-x="512" 
d="M383 224v445q3 21 27.5 30.5t46 0.5t19.5 -35q7 -91 5.5 -315.5t-5.5 -308.5q1 -20 -20.5 -30.5t-43.5 -10.5q-37 0 -80.5 59t-168.5 267q-20 34 -31 52l1 -305q0 -71 -51 -71q-44 0 -44 69q0 42 -4 271.5t-4 291.5q0 28 15.5 43.5t41.5 15.5q35 0 46 -23z" />
    <glyph glyph-name="O" unicode="O" horiz-adv-x="558" 
d="M31 291q-2 52 2.5 103.5t20.5 108t44 99t77 70t113 27.5q59 0 106 -31t74 -80t41.5 -101t16.5 -103q3 -63 -7.5 -123.5t-36.5 -118.5t-77.5 -95.5t-123.5 -42.5q-72 0 -130.5 46t-87.5 110.5t-32 130.5zM192 487q-2 -20 -4 -49.5t-3.5 -79.5t2.5 -95.5t12 -88.5
t27.5 -68.5t47.5 -25.5q131 0 92 400q-2 8 -2 11v5q-3 24 -6.5 39.5t-12 38t-25 34.5t-40.5 12q-78 0 -88 -133z" />
    <glyph glyph-name="P" unicode="P" horiz-adv-x="446" 
d="M415 514q1 -45 -8.5 -84t-33.5 -75.5t-73 -55.5t-119 -13l-1 -229q0 -21 -7.5 -34.5t-21.5 -18t-22.5 -5.5t-21.5 -1h-3q-45 0 -63 26q-9 334 -10 612q-1 18 9.5 30t29 17.5t34 7.5t32.5 2q53 0 95 -6.5t85 -24.5t68.5 -55.5t30.5 -92.5zM174 599l1 -228q52 -8 81.5 40
t28.5 102q-1 46 -33 69.5t-78 16.5z" />
    <glyph glyph-name="Q" unicode="Q" horiz-adv-x="527" 
d="M335 -46l-29 58q-18 -5 -40 -7q-68 0 -123 46t-82.5 110.5t-29.5 130.5q-3 68 6 132.5t33 130t76 105.5t126 40q55 0 99.5 -31t70 -80t39 -101t15.5 -103q3 -97 -21.5 -187.5t-83.5 -141.5l25 -53q3 -5 3 -16q1 -18 -22 -31t-44 -13q-13 0 -18 11zM265 621
q-40 -1 -63 -84t-23.5 -182.5t21 -184t59.5 -88.5q33 -3 56.5 51.5t29.5 134.5t1.5 160.5t-26.5 137t-55 55.5z" />
    <glyph glyph-name="R" unicode="R" horiz-adv-x="465" 
d="M311 -8l-130 287l-1 -222q0 -21 -7.5 -34.5t-21.5 -18t-22.5 -5.5t-21.5 -1h-3q-45 0 -63 26q-9 334 -10 612q-1 18 9.5 30t29 17.5t34 7.5t32.5 2q53 0 95 -6.5t85 -24.5t68.5 -55.5t30.5 -92.5q4 -153 -97 -207q24 -51 66.5 -144t46.5 -103q8 -25 -4 -40.5t-43 -28.5
q-57 -27 -73 1zM174 599l1 -228q52 -8 81.5 40t28.5 102q-1 46 -33 69.5t-78 16.5z" />
    <glyph glyph-name="S" unicode="S" horiz-adv-x="419" 
d="M346 525q-19 -5 -32 1.5t-18 15.5t-11 25q-12 34 -38.5 37.5t-46 -17.5t-12.5 -45q9 -33 56 -99t89 -136.5t46 -122.5q4 -56 -13 -94t-51.5 -57t-77 -25.5t-97.5 -2.5q-50 3 -82.5 28t-26.5 66q0 78 54 78q25 0 33 -12.5t11 -37.5q0 -1 0.5 -3.5t0.5 -3.5q5 -31 28 -41
t45.5 3t26.5 40q5 32 -23.5 83.5t-66 99.5t-69.5 108.5t-32 105.5q-1 97 63.5 138t168.5 34q72 -5 104 -61q27 -46 5 -81q-11 -18 -34 -24z" />
    <glyph glyph-name="T" unicode="T" horiz-adv-x="411" 
d="M118 18q-5 21 -4 288t1 301q-8 3 -32.5 4t-38.5 8t-14 27q0 39 54 39l252 4q45 -6 45 -38q0 -16 -17 -27t-35 -13q-5 -1 -29.5 -2.5t-29.5 -1.5l-4 -3q-4 -81 -4 -590q-6 -30 -82 -30q-56 0 -62 34z" />
    <glyph glyph-name="U" unicode="U" horiz-adv-x="510" 
d="M469 628q1 -51 5 -177.5t5 -194.5q1 -126 -57 -189t-165 -63q-102 0 -160.5 67t-61.5 185q-2 72 -3 214t-2 187q2 24 15 34t41 10q26 0 47 -3q30 -7 30 -70q0 -21 12 -372q4 -50 12.5 -88t24 -63.5t36.5 -23.5q31 -5 51.5 9.5t30 45.5t13.5 75t2.5 96.5t-3.5 111
t-4.5 119t0.5 119.5q1 24 13.5 34t40.5 10q26 0 47 -3q30 -7 30 -70z" />
    <glyph glyph-name="V" unicode="V" horiz-adv-x="519" 
d="M226 33l-194 593q-9 41 18 62.5t62 13t45 -39.5l131 -402q1 1 25 91.5t51.5 191t35.5 125.5q2 14 21.5 25t40.5 7.5t27 -25.5q-24 -130 -165 -643q-16 -26 -47.5 -26t-50.5 27z" />
    <glyph glyph-name="W" unicode="W" horiz-adv-x="756" 
d="M226 24l-194 593q-9 41 18 62.5t62 13t45 -39.5l131 -402l47 171l-66 204q-9 41 18 62.5t62 13t45 -39.5l131 -402q1 1 25 91.5t51.5 191t35.5 125.5q2 14 21.5 25t40.5 7.5t27 -25.5q-24 -130 -165 -643q-16 -26 -47.5 -26t-50.5 27l-76 232q-17 -73 -63 -242
q-16 -26 -47.5 -26t-50.5 27z" />
    <glyph glyph-name="X" unicode="X" horiz-adv-x="475" 
d="M228 226l-93 -202q-6 -19 -30.5 -25t-43 6t-11.5 39q6 23 15 47t23 54t24 49.5t31 60.5t31 60l-142 309q-8 35 23 59.5t64 2.5q20 -14 41 -52.5t87 -180.5l85 175q47 100 102 54q20 -15 2 -60.5t-85 -171.5q-32 -59 -50 -94l134 -252q20 -55 -18 -84q-31 -23 -64 -5
q-21 12 -29 37z" />
    <glyph glyph-name="Y" unicode="Y" horiz-adv-x="475" 
d="M182 58l-8 257l-142 309q-8 35 23 59.5t64 2.5q20 -14 41 -52.5t87 -180.5l85 175q47 100 102 54q20 -15 2 -60.5t-85 -171.5q-32 -59 -50 -94v-272q2 -29 -7.5 -50t-26 -28.5t-33.5 -6t-32 17t-20 41.5z" />
    <glyph glyph-name="Z" unicode="Z" horiz-adv-x="424" 
d="M131 703l231 -6q39 4 30 -57q-10 -73 -117 -317q-72 -165 -94 -223q43 -1 88 1t72 2q31 -5 39 -27.5t-5 -43.5t-32 -22q-89 -6 -149.5 -6.5t-93.5 3.5t-50 12t-18.5 19t0.5 24l224 536q-157 2 -174 5q-33 6 -39 28q-9 35 10 55t78 17z" />
    <glyph glyph-name="a" unicode="a" horiz-adv-x="494" 
d="M330 186l-128 -1l-43 -156q-23 -31 -75 -31q-36 0 -44 23q11 60 37 167q-11 0 -18 1q-29 8 -29 38q0 13 2.5 21.5t9.5 13t10 6.5t15 4.5t14 2.5q12 0 18 1q61 231 94 351q14 50 51 62.5t61 -35.5q10 -38 43 -162t49 -186t37 -147.5t30 -136.5q-6 -22 -27 -25.5t-40.5 7.5
t-21.5 25q-3 6 -45 157zM266 430q-9 -33 -40 -152q47 0 80 -1q-21 81 -38 153h-2z" />
    <glyph glyph-name="b" unicode="b" horiz-adv-x="470" 
d="M404 511q0 -40 -21 -82.5t-62 -72.5q58 -27 88.5 -77.5t30.5 -98.5q0 -58 -30 -96q-39 -52 -103.5 -67t-224.5 -19h-1q-20 0 -30 5t-21 21v414q0 89 4 217q3 8 8 14.5t13 10t13.5 5.5t16.5 3t16 1h17.5h15.5q61 0 94 -3t75 -22t71 -57q30 -37 30 -96zM164 312l-4 -215
q27 0 39.5 0.5t38 4.5t38.5 12t24 25t11 42q0 62 -43.5 106.5t-103.5 24.5zM168 596l-8 -199q56 -12 85.5 23.5t29.5 89.5q0 43 -23.5 66.5t-65.5 23.5h-15z" />
    <glyph glyph-name="c" unicode="c" horiz-adv-x="476" 
d="M432 82q-27 -48 -68.5 -64.5t-93.5 -18.5q-98 -4 -169 86.5t-71 218.5q0 50 3.5 91.5t13.5 90.5t30.5 85.5t51 68t79 46.5t110.5 13q42 -2 70 -19t48 -58q13 -53 -3.5 -77.5t-50.5 -22.5q-28 1 -39.5 16t-10.5 32.5t-6 32t-26 15.5q-46 2 -80 -54t-43.5 -136.5t-3.5 -161
t40 -137.5t87 -57q25 0 38 14.5t14.5 31.5t12 31.5t31.5 14.5q75 0 36 -82z" />
    <glyph glyph-name="d" unicode="d" horiz-adv-x="465" 
d="M82 701q4 0 27.5 0.5t27.5 0.5q107 0 173 -45t97 -147q23 -52 26.5 -113t-9.5 -119.5t-44 -111.5t-73 -91.5t-100.5 -57t-122.5 -10.5q-2 0 -16 0.5t-16 0.5q-7 2 -14.5 9t-7.5 13v631q0 14 9 23t18 11.5t25 5.5zM163 119v-2q0 -28 16 -28q38 0 63 36t32 78q3 9 7.5 49
t5.5 101t-6 119t-32.5 103t-67.5 53q-3 -3 -3 -4q-4 -4 -4 -11q-2 -24 -4.5 -228t-6.5 -255v-11z" />
    <glyph glyph-name="e" unicode="e" horiz-adv-x="422" 
d="M78 303q-27 5 -37.5 12.5t-10.5 29.5q0 17 9.5 24t23.5 12t19 14v59q0 35 -2 104.5t-2 104.5q0 17 13.5 26t31.5 9q42 0 75 0.5t50.5 1t28 1t15.5 0.5h4h2q50 0 50 -33q0 -24 -19 -36t-42 -13.5t-42 -3t-19 -6.5v-210l7 -6h133q9 0 16 -12.5t7 -22.5q-2 -18 -11 -27
t-43.5 -15t-104.5 -6q-4 0 -4 -3q0 -1 -1 -3.5t-2 -5.5l-1 -2v-200h144q12 0 19 -12t7 -25q0 -19 -14 -29.5t-34 -10.5h-251q-3 2 -4 4q-3 3 -3 7z" />
    <glyph glyph-name="f" unicode="f" horiz-adv-x="419" 
d="M78 303q-27 5 -37.5 12.5t-10.5 29.5q0 24 9.5 31t23.5 8.5t19 10.5l-4 268q0 17 13.5 26t31.5 9q42 0 75.5 0.5t51.5 0.5t29.5 0.5t15.5 0.5h5h2q21 0 32 -6t14 -26q3 -28 -15 -41.5t-42 -12.5t-44.5 0t-20.5 -5v-210l7 -6h133q9 0 16 -12.5t7 -22.5q-2 -31 -21 -38.5
t-92 -10.5q-31 -1 -50 -2q-4 -12 2 -256q2 -16 -4.5 -23t-37 -11.5t-93.5 2.5q-3 2 -4 4q-3 3 -3 7z" />
    <glyph glyph-name="g" unicode="g" horiz-adv-x="518" 
d="M31 304q-2 55 5.5 108.5t27.5 106t50.5 92t79 64t108.5 24.5q48 0 94.5 -18t67.5 -57q0 -2 0.5 -11t0.5 -11q1 -29 -11 -53.5t-39 -24.5q-12 0 -24 14.5t-21 32t-28 32t-45 14.5q-39 0 -65 -25t-36.5 -66t-13.5 -75t-2 -71q0 -35 2 -73q9 -222 115 -233q16 0 27.5 8
t17.5 26t9.5 32.5t4 43t0 40t-1.5 40.5q-1 18 -14.5 23.5t-29.5 4t-29.5 7t-14.5 30.5t15 29.5t43 7.5h21h26.5t27.5 -0.5t29 -1.5t25 -3.5t22 -6.5t13 -10q-4 -27 -4 -159q-1 -79 -63.5 -134t-142.5 -55q-76 0 -133 49.5t-83.5 117t-30.5 141.5z" />
    <glyph glyph-name="h" unicode="h" horiz-adv-x="584" 
d="M425 25q-10 87 -12 275h-183q3 -213 3 -215v-57q-17 -30 -72 -30q-41 0 -57 23q-10 88 -12 279h-19q-19 4 -31 21t-12 40q0 21 61 24l-2 248q4 44 51 44h5q26 0 47 -3q30 -7 30 -70q0 -9 6 -218h51.5h68.5h64l-2 251q4 44 51 44h5q26 0 47 -3q30 -7 30 -70
q11 -495 11 -519v-57q-17 -30 -72 -30q-41 0 -57 23z" />
    <glyph glyph-name="i" unicode="i" horiz-adv-x="204" 
d="M45 21q-7 63 -9.5 155.5t-3.5 256t-2 200.5q4 44 51 44h5q26 0 47 -3q30 -7 30 -70q11 -495 11 -519v-57q-17 -30 -72 -30q-41 0 -57 23z" />
    <glyph glyph-name="j" unicode="j" horiz-adv-x="387" 
d="M189 -12q-48 0 -94 18t-65 57v22q0 29 13.5 53.5t40.5 24.5q12 0 23 -14t19 -31t26.5 -32t44.5 -16q23 -1 29.5 22.5t6.5 88.5q-4 58 -5.5 133.5t-2.5 189t-1 149.5q4 39 50 39h5q3 0 22 -1t23 -1q29 -7 29 -60v-2q4 -193 4 -439q0 -41 -1.5 -64.5t-6.5 -50t-15.5 -39.5
t-29 -25.5t-47 -17t-68.5 -4.5z" />
    <glyph glyph-name="k" unicode="k" horiz-adv-x="471" 
d="M434 634l-156 -234q39 -71 154 -331q4 -8 4 -23q0 -27 -33 -45t-63 -18q-18 0 -26 16q-127 302 -138 312l-1 1h-1l-4 -269q0 -24 -26 -34.5t-53 -10.5q-44 0 -61 26v414q0 89 4 217q5 12 14 19.5t22.5 10t22.5 3t26.5 -0.5t22.5 -1q38 -8 36 -90q-7 -201 -1 -203l173 274
q17 32 55 24q29 -7 35 -31q3 -13 -6 -26z" />
    <glyph glyph-name="l" unicode="l" horiz-adv-x="345" 
d="M30 34q-1 117 2.5 328.5t3.5 279.5q0 39 17.5 53t58.5 14q7 0 15.5 -3t21 -10.5t21 -25.5t8.5 -44q0 -60 -2 -179t-2 -178q0 -132 4 -165l3 -4h93q17 0 29 -13t12 -30q0 -31 -38 -38q-116 -4 -185 -4q-1 0 -12.5 -0.5t-16 0t-13 2.5t-13 6t-7.5 11z" />
    <glyph glyph-name="m" unicode="m" horiz-adv-x="608" 
d="M479 400l-112 -224q-25 -52 -62 -54q-38 -2 -64 54q-19 40 -58.5 116t-53.5 108v-348q2 -25 -17 -41t-43 -12t-34 29q-4 42 -4 173.5t2 284t2 166.5q0 18 19.5 27.5t42.5 5t32 -22.5l175 -341l175 341q12 28 53 23.5t41 -33.5q0 -14 2 -166.5t2 -284t-4 -173.5
q-10 -25 -34 -29t-43 12t-17 41v348z" />
    <glyph glyph-name="n" unicode="n" horiz-adv-x="472" 
d="M128 408q-1 -33 5 -199.5t-4 -184.5q-17 -22 -49 -22q-33 0 -44 26q-7 91 -5.5 315.5t5.5 308.5q-1 20 20.5 30.5t43.5 10.5q17 0 29 -8t29.5 -36t34.5 -61.5t57.5 -107t84.5 -149.5h4v287q0 71 51 71q44 0 44 -69q0 -42 4 -271.5t4 -291.5q0 -28 -15.5 -43.5
t-41.5 -15.5q-35 0 -46 23z" />
    <glyph glyph-name="o" unicode="o" 
d="M30 355q0 58 12.5 114t40.5 109.5t81.5 85.5t126.5 30q59 -2 102 -35t65 -85.5t31.5 -105t9.5 -106.5q0 -46 -6 -92t-22.5 -96t-41.5 -87t-68 -60.5t-97 -22.5q-62 1 -109 36t-73 89t-39 112t-13 114zM271 624q-45 -1 -67 -85t-19 -185t22.5 -185.5t47.5 -87.5
q48 -13 77 77q36 108 26 262q-9 156 -60 195q-12 9 -27 9z" />
    <glyph glyph-name="p" unicode="p" horiz-adv-x="444" 
d="M414 511q0 -32 -14 -65.5t-41 -65t-75.5 -50.5t-109.5 -18l-4 -269q0 -24 -26 -34.5t-53 -10.5q-44 0 -61 26v414q0 89 4 217q3 8 8.5 14.5t14 10t15.5 5.5t19 3t18 1h19h16q61 0 94 -3t75 -22t71 -57q30 -37 30 -96zM178 596l-8 -199l8 -7q0 -1 13 -1q46 0 70 36t24 85
q0 43 -23.5 66.5t-65.5 23.5h-15z" />
    <glyph glyph-name="q" unicode="q" 
d="M315 -54l-30 59q-7 -1 -21 -1q-61 0 -108.5 34.5t-73.5 89t-39 112.5t-13 115q0 45 7.5 90.5t27 93t48 83t75 56.5t103.5 17q58 -4 100.5 -36.5t65 -82.5t32.5 -103t10 -111q0 -97 -32 -191.5t-101 -138.5l27 -49q2 -3 2 -12q0 -14 -21.5 -24t-41.5 -10q-11 0 -17 9z
M271 624q-52 -1 -77 -84.5t-21.5 -183.5t26.5 -185.5t56 -91.5q66 -12 86.5 125t-4 279t-66.5 141z" />
    <glyph glyph-name="r" unicode="r" horiz-adv-x="467" 
d="M314 -1q-127 302 -138 312l-1 1h-1l-4 -269q0 -24 -26 -34.5t-53 -10.5q-44 0 -61 26v414q0 89 4 217q3 8 8.5 14.5t14 10t15.5 5.5t19 3t18 1h19h16q270 0 270 -178q0 -42 -14 -74t-30 -48.5t-56 -50.5q3 -8 4 -11l114 -258q4 -8 4 -23q0 -27 -33 -45t-63 -18
q-18 0 -26 16zM171 600l-1 -203q56 -8 85.5 27.5t29.5 85.5q0 89 -114 90z" />
    <glyph glyph-name="s" unicode="s" horiz-adv-x="411" 
d="M65 170q27 7 41.5 -4.5t18 -29t13 -33t27.5 -15.5q38 0 49.5 25t9.5 75q-1 40 -21.5 71.5t-48.5 54t-56 47t-47 62.5t-19 88q1 98 65.5 142.5t173.5 36.5q50 -3 82.5 -28t26.5 -66q0 -78 -54 -78q-25 0 -35.5 16t-9 35t-4.5 35t-24 16q-41 0 -60.5 -29t-16.5 -79
q2 -34 17.5 -61t37 -44t46.5 -38.5t46 -44t35 -61t14 -87.5t-20 -84t-55 -53.5t-73 -26.5t-84 -9q-49 2 -82 27t-27 66q0 27 8.5 48.5t25.5 25.5z" />
    <glyph glyph-name="t" unicode="t" horiz-adv-x="427" 
d="M134 30v37q0 39 1 277.5t0 277.5h-23.5t-37.5 1.5t-30 12t-13 29.5q2 28 37.5 34.5t159.5 6.5q81 0 132 1q15 0 26 -11t11 -26q0 -22 -14.5 -33t-34 -11t-38.5 -0.5t-28 -3.5q2 -273 0 -574q-3 -30 -22.5 -41t-54.5 -11q-68 0 -71 34z" />
    <glyph glyph-name="u" unicode="u" horiz-adv-x="485" 
d="M447 622q1 -73 3.5 -203.5t3.5 -188.5q1 -123 -58.5 -176t-161.5 -50q-103 -3 -154 53.5t-49 165.5q3 402 3 423q4 47 50 47h5q28 0 46 -3q32 -8 29 -74q5 -332 4 -414q0 -63 20.5 -95.5t46.5 -30.5q81 4 81 156q-1 76 0 227t1 193q4 47 50 47h5q28 0 46 -3q32 -8 29 -74
z" />
    <glyph glyph-name="v" unicode="v" horiz-adv-x="509" 
d="M270 258h2q-1 -1 23 84.5t52.5 183t37.5 122.5q2 14 22.5 24.5t43 6.5t28.5 -25q-10 -49 -31 -130.5t-40 -146.5t-51.5 -177.5t-45.5 -158.5q-15 -31 -41 -36t-48 13t-29 49q-3 16 -49.5 158t-83.5 274t-28 156q8 20 38 25.5t57.5 -4t30.5 -28.5q93 -323 112 -390z" />
    <glyph glyph-name="w" unicode="w" horiz-adv-x="718" 
d="M490 261h2q-1 -1 21.5 87t49.5 188t36 126q2 14 21.5 25t40.5 7.5t27 -25.5q-9 -51 -30 -136.5t-37 -147.5t-49 -186t-43 -162q-24 -49 -63 -36t-49 63q-2 10 -10 37.5t-23.5 79t-26.5 89.5l-60 -227q-24 -49 -63 -36t-49 63q-3 15 -47.5 162t-79.5 283t-26 161
q12 32 63.5 27.5t55.5 -35.5l107 -401h2q-1 -1 12.5 53.5t32.5 128.5q-52 190 -41 221q12 32 63.5 27.5t55.5 -35.5z" />
    <glyph glyph-name="x" unicode="x" horiz-adv-x="482" 
d="M258 460q6 13 29.5 60t39 81.5t26.5 67.5q7 19 32 26t44.5 -5.5t12.5 -40.5q-30 -109 -130 -306q38 -84 90 -189q42 -87 47.5 -106.5t-8.5 -36.5q-4 -3 -10 -5t-12 -3t-18.5 -2.5t-21.5 -2.5q-21 -3 -42.5 8.5t-33.5 36.5l-70 150l-70 -134q-33 -62 -63 -59q-4 0 -10 0.5
t-9 1t-6.5 1t-5.5 1t-4.5 1t-4 1.5t-3.5 2t-4 3q-14 8 -12 25t16 46t44 82q47 84 79 143q-1 2 -3 6.5t-3 6.5q-16 37 -42 94.5t-41 90.5t-32 73.5t-28 69.5q-5 30 24 49t65 10.5t48 -46.5q2 -5 14 -30t14 -29q12 -31 35.5 -83t26.5 -59z" />
    <glyph glyph-name="y" unicode="y" horiz-adv-x="474" 
d="M258 460q6 13 29.5 60t39 81.5t26.5 67.5q7 19 32 26t44.5 -5.5t12.5 -40.5q-30 -109 -130 -306l10 -289q-1 -31 -35.5 -45.5t-69.5 -5.5t-35 37l-5 283l-146 325q-5 30 24 49t65 10.5t48 -46.5q2 -5 14 -30t14 -29q12 -31 35.5 -83t26.5 -59z" />
    <glyph glyph-name="z" unicode="z" horiz-adv-x="442" 
d="M312 4q-129 -3 -182.5 -2t-83.5 9q-8 2 -9 17t5.5 40.5t17.5 57t27 71.5t32.5 79t36.5 84t37 82.5t35.5 79t30.5 68.5q-124 2 -199 17q-26 5 -29 27.5t13 42t35 16.5q50 -2 71.5 -2.5t94 3t82.5 3.5q31 9 60 -9.5t24 -47.5l-224 -532q158 -2 175 -5q33 -5 39 -28
q9 -35 -10.5 -54.5t-78.5 -16.5z" />
    <glyph glyph-name="Agrave" unicode="&#xc0;" horiz-adv-x="525" 
d="M342 193l-141 2l-36 -137q-4 -34 -32 -48t-57 -6.5t-37 28.5q-9 25 27 167q-20 6 -28 14.5t-7 28.5q1 14 11.5 19.5t41.5 6.5q18 65 44 152.5t43.5 145t20.5 72.5q6 31 30.5 47t52 7.5t42.5 -40.5q24 -92 93.5 -307.5t84.5 -294.5q-3 -20 -14 -32t-24.5 -14t-27.5 1
t-24 12t-11 20l-51 156h-1zM267 441q-13 -43 -47 -175q58 -2 101 -2q-9 27 -17.5 54t-15 49t-12 39t-8 26t-1.5 9zM322 757q-18 -23 -67.5 8t-55.5 61q-2 17 13.5 29t30.5 8q31 -6 57 -45t22 -61z" />
    <glyph glyph-name="Aacute" unicode="&#xc1;" horiz-adv-x="525" 
d="M342 193l-141 2l-36 -137q-4 -34 -32 -48t-57 -6.5t-37 28.5q-9 25 27 167q-20 6 -28 14.5t-7 28.5q1 14 11.5 19.5t41.5 6.5q18 65 44 152.5t43.5 145t20.5 72.5q6 31 30.5 47t52 7.5t42.5 -40.5q24 -92 93.5 -307.5t84.5 -294.5q-3 -20 -14 -32t-24.5 -14t-27.5 1
t-24 12t-11 20l-51 156h-1zM267 441q-13 -43 -47 -175q58 -2 101 -2q-9 27 -17.5 54t-15 49t-12 39t-8 26t-1.5 9zM187 761q-4 22 22 61t57 45q15 4 30.5 -8t13.5 -29q-6 -30 -55.5 -61t-67.5 -8z" />
    <glyph glyph-name="Acircumflex" unicode="&#xc2;" horiz-adv-x="525" 
d="M342 193l-141 2l-36 -137q-4 -34 -32 -48t-57 -6.5t-37 28.5q-9 25 27 167q-20 6 -28 14.5t-7 28.5q1 14 11.5 19.5t41.5 6.5q18 65 44 152.5t43.5 145t20.5 72.5q6 31 30.5 47t52 7.5t42.5 -40.5q24 -92 93.5 -307.5t84.5 -294.5q-3 -20 -14 -32t-24.5 -14t-27.5 1
t-24 12t-11 20l-51 156h-1zM267 441q-13 -43 -47 -175q58 -2 101 -2q-9 27 -17.5 54t-15 49t-12 39t-8 26t-1.5 9zM132 765q1 33 51.5 83t74.5 50q17 0 71 -56.5t54 -63.5q-3 -34 -37 -34q-21 0 -42 17l-48 48q-3 -1 -35.5 -35t-57.5 -34q-31 0 -31 21v4z" />
    <glyph glyph-name="Atilde" unicode="&#xc3;" horiz-adv-x="525" 
d="M342 193l-141 2l-36 -137q-4 -34 -32 -48t-57 -6.5t-37 28.5q-9 25 27 167q-20 6 -28 14.5t-7 28.5q1 14 11.5 19.5t41.5 6.5q18 65 44 152.5t43.5 145t20.5 72.5q6 31 30.5 47t52 7.5t42.5 -40.5q24 -92 93.5 -307.5t84.5 -294.5q-3 -20 -14 -32t-24.5 -14t-27.5 1
t-24 12t-11 20l-51 156h-1zM267 441q-13 -43 -47 -175q58 -2 101 -2q-9 27 -17.5 54t-15 49t-12 39t-8 26t-1.5 9zM300 741h-2q-18 1 -42 10.5t-41 17.5t-33 12t-23.5 -6t-6.5 -37q-15 4 -20.5 18.5t-1.5 32.5t13 35.5t22.5 29t26.5 10.5h2q18 -1 40.5 -9.5t39 -16t32 -11
t24.5 6t10 34.5q15 -4 20.5 -18.5t1.5 -32.5t-13 -35.5t-22.5 -29t-26.5 -11.5z" />
    <glyph glyph-name="Adieresis" unicode="&#xc4;" horiz-adv-x="525" 
d="M342 193l-141 2l-36 -137q-4 -34 -32 -48t-57 -6.5t-37 28.5q-9 25 27 167q-20 6 -28 14.5t-7 28.5q1 14 11.5 19.5t41.5 6.5q18 65 44 152.5t43.5 145t20.5 72.5q6 31 30.5 47t52 7.5t42.5 -40.5q24 -92 93.5 -307.5t84.5 -294.5q-3 -20 -14 -32t-24.5 -14t-27.5 1
t-24 12t-11 20l-51 156h-1zM267 441q-13 -43 -47 -175q58 -2 101 -2q-9 27 -17.5 54t-15 49t-12 39t-8 26t-1.5 9zM126 791q0 25 24 35t47.5 -3t23.5 -42q0 -28 -23.5 -39t-47.5 3t-24 46zM278 788q0 27 27 39t52.5 -1.5t22.5 -47.5q-3 -31 -28.5 -40t-49.5 6.5t-24 43.5z
" />
    <glyph glyph-name="Aring" unicode="&#xc5;" horiz-adv-x="525" 
d="M342 193l-141 2l-36 -137q-4 -34 -32 -48t-57 -6.5t-37 28.5q-9 25 27 167q-20 6 -28 14.5t-7 28.5q1 14 11.5 19.5t41.5 6.5q18 65 44 152.5t43.5 145t20.5 72.5q6 31 30.5 47t52 7.5t42.5 -40.5q24 -92 93.5 -307.5t84.5 -294.5q-3 -20 -14 -32t-24.5 -14t-27.5 1
t-24 12t-11 20l-51 156h-1zM267 441q-13 -43 -47 -175q58 -2 101 -2q-9 27 -17.5 54t-15 49t-12 39t-8 26t-1.5 9zM254 727q-38 1 -64 19.5t-31 44.5t1 51.5t31 43t61 17.5q65 0 91.5 -45t0 -89t-89.5 -42zM258 867q-21 3 -26 -32q-6 -42 11 -67q6 -9 14 -9q12 0 20 25.5
t3.5 52.5t-22.5 30z" />
    <glyph glyph-name="AE" unicode="&#xc6;" horiz-adv-x="605" 
d="M271 61q0 9 -0.5 55.5t-0.5 77.5l-69 1l-36 -137q-4 -34 -32 -48t-57 -6.5t-37 28.5q-9 25 27 167q-20 6 -28 14.5t-7 28.5q1 14 11.5 19.5t41.5 6.5q17 63 44.5 152.5t44.5 146t19 71.5t15 26t37 17t46.5 10t57.5 5.5t54.5 2t52.5 0t37 -0.5q3 0 20.5 -0.5t20.5 -0.5
q40 -11 40 -33q0 -42 -52 -44q-64 -4 -110 -4q-4 0 -4 -4q-3 -12 -3 -354h141q11 0 20.5 -9.5t9.5 -20.5q0 -17 -14 -33.5t-31 -16.5h-118l-4 -5q-5 2 -1 -66v-8q4 -7 22 -7q11 0 35 2t36 2q62 0 62 -35q0 -33 -33 -43l-129 -7q-1 0 -10 -0.5t-20 -0.5h-16q-4 0 -24 0.5
t-23 0.5q-16 4 -26 18t-10 32zM282 600l-72 -334l60 -2z" />
    <glyph glyph-name="Ccedilla" unicode="&#xc7;" horiz-adv-x="454" 
d="M238 -215q-47 0 -78 32q-25 25 -5 38q11 6 32 6q13 0 32.5 -9.5t32.5 -9.5q17 0 21 13q-1 16 -20.5 28.5t-41 19.5t-34 19t-1.5 27l41 59q-54 14 -92 47t-58 82t-28.5 103t-8.5 122q0 82 25.5 154t85.5 122.5t146 50.5q22 0 33 -0.5t31 -3.5t29.5 -9.5t17.5 -20t7 -32.5
q-1 -31 -13 -46t-31.5 -14t-35.5 5.5t-37 14t-24 10.5q-61 20 -91 -72q-31 -97 -12 -230q21 -141 83 -182q2 -2 4 -3q11 -8 24 -8q16 0 32 12.5t28 26.5t24.5 25t27.5 6.5t32 -28.5q24 -35 -22 -77.5t-111 -54.5q-5 -20 -29 -51q21 -8 30 -12t24.5 -12.5t24 -18.5t13.5 -23
v1q7 -14 3 -33q-6 -36 -37.5 -55t-73.5 -19z" />
    <glyph glyph-name="Egrave" unicode="&#xc8;" horiz-adv-x="415" 
d="M82 69l5 118q0 71 -4 120q0 2 -13 5.5t-26.5 13t-13.5 27.5q0 21 24.5 30.5t27.5 15.5q4 179 3 288q11 14 37 14q30 0 90.5 2.5t90.5 2.5q3 0 20.5 -0.5t20.5 -0.5q40 -11 40 -33q0 -42 -52 -44q-64 -4 -110 -4q-4 0 -4 -4q-4 -16 -4 -217h141q11 0 20.5 -9.5t9.5 -20.5
q0 -17 -14 -33.5t-31 -16.5h-118l-4 -5q-4 2 -1 -158v-18l1 -35q4 -7 22 -7q11 0 35 2t36 2q62 0 62 -35q0 -33 -33 -43q-10 -1 -64.5 -4t-64.5 -3q-1 0 -10 -0.5t-20 -0.5h-16q-4 0 -23.5 0.5t-23.5 0.5q-16 4 -26 18t-10 32zM280 755q-18 -23 -67.5 8t-55.5 61
q-2 17 13.5 29t30.5 8q31 -6 57 -45t22 -61z" />
    <glyph glyph-name="Eacute" unicode="&#xc9;" horiz-adv-x="415" 
d="M82 69l5 118q0 71 -4 120q0 2 -13 5.5t-26.5 13t-13.5 27.5q0 21 24.5 30.5t27.5 15.5q4 179 3 288q11 14 37 14q30 0 90.5 2.5t90.5 2.5q3 0 20.5 -0.5t20.5 -0.5q40 -11 40 -33q0 -42 -52 -44q-64 -4 -110 -4q-4 0 -4 -4q-4 -16 -4 -217h141q11 0 20.5 -9.5t9.5 -20.5
q0 -17 -14 -33.5t-31 -16.5h-118l-4 -5q-4 2 -1 -158v-18l1 -35q4 -7 22 -7q11 0 35 2t36 2q62 0 62 -35q0 -33 -33 -43q-10 -1 -64.5 -4t-64.5 -3q-1 0 -10 -0.5t-20 -0.5h-16q-4 0 -23.5 0.5t-23.5 0.5q-16 4 -26 18t-10 32zM145 759q-4 22 22 61t57 45q15 4 30.5 -8
t13.5 -29q-6 -30 -55.5 -61t-67.5 -8z" />
    <glyph glyph-name="Ecircumflex" unicode="&#xca;" horiz-adv-x="415" 
d="M82 69l5 118q0 71 -4 120q0 2 -13 5.5t-26.5 13t-13.5 27.5q0 21 24.5 30.5t27.5 15.5q4 179 3 288q11 14 37 14q30 0 90.5 2.5t90.5 2.5q3 0 20.5 -0.5t20.5 -0.5q40 -11 40 -33q0 -42 -52 -44q-64 -4 -110 -4q-4 0 -4 -4q-4 -16 -4 -217h141q11 0 20.5 -9.5t9.5 -20.5
q0 -17 -14 -33.5t-31 -16.5h-118l-4 -5q-4 2 -1 -158v-18l1 -35q4 -7 22 -7q11 0 35 2t36 2q62 0 62 -35q0 -33 -33 -43q-10 -1 -64.5 -4t-64.5 -3q-1 0 -10 -0.5t-20 -0.5h-16q-4 0 -23.5 0.5t-23.5 0.5q-16 4 -26 18t-10 32zM90 763q1 33 51.5 83t74.5 50q17 0 71 -56.5
t54 -63.5q-3 -34 -37 -34q-21 0 -42 17l-48 48q-3 -1 -35.5 -35t-57.5 -34q-31 0 -31 21v4z" />
    <glyph glyph-name="Edieresis" unicode="&#xcb;" horiz-adv-x="415" 
d="M82 69l5 118q0 71 -4 120q0 2 -13 5.5t-26.5 13t-13.5 27.5q0 21 24.5 30.5t27.5 15.5q4 179 3 288q11 14 37 14q30 0 90.5 2.5t90.5 2.5q3 0 20.5 -0.5t20.5 -0.5q40 -11 40 -33q0 -42 -52 -44q-64 -4 -110 -4q-4 0 -4 -4q-4 -16 -4 -217h141q11 0 20.5 -9.5t9.5 -20.5
q0 -17 -14 -33.5t-31 -16.5h-118l-4 -5q-4 2 -1 -158v-18l1 -35q4 -7 22 -7q11 0 35 2t36 2q62 0 62 -35q0 -33 -33 -43q-10 -1 -64.5 -4t-64.5 -3q-1 0 -10 -0.5t-20 -0.5h-16q-4 0 -23.5 0.5t-23.5 0.5q-16 4 -26 18t-10 32zM84 789q0 25 24 35t47.5 -3t23.5 -42
q0 -28 -23.5 -39t-47.5 3t-24 46zM236 786q0 27 27 39t52.5 -1.5t22.5 -47.5q-3 -31 -28.5 -40t-49.5 6.5t-24 43.5z" />
    <glyph glyph-name="Igrave" unicode="&#xcc;" horiz-adv-x="197" 
d="M34 38q-6 18 -2 296t4 309q-2 26 30 42t65.5 5.5t35.5 -49.5l-5 -607q-6 -30 -73 -30q-50 0 -55 34zM162 753q-18 -23 -67.5 8t-55.5 61q-2 17 13.5 29t30.5 8q31 -6 57 -45t22 -61z" />
    <glyph glyph-name="Iacute" unicode="&#xcd;" horiz-adv-x="197" 
d="M34 38q-6 18 -2 296t4 309q-2 26 30 42t65.5 5.5t35.5 -49.5l-5 -607q-6 -30 -73 -30q-50 0 -55 34zM27 757q-4 22 22 61t57 45q15 4 30.5 -8t13.5 -29q-6 -30 -55.5 -61t-67.5 -8z" />
    <glyph glyph-name="Icircumflex" unicode="&#xce;" horiz-adv-x="197" 
d="M34 38q-6 18 -2 296t4 309q-2 26 30 42t65.5 5.5t35.5 -49.5l-5 -607q-6 -30 -73 -30q-50 0 -55 34zM-28 761q1 33 51.5 83t74.5 50q17 0 71 -56.5t54 -63.5q-3 -34 -37 -34q-21 0 -42 17l-48 48q-3 -1 -35.5 -35t-57.5 -34q-31 0 -31 21v4z" />
    <glyph glyph-name="Idieresis" unicode="&#xcf;" horiz-adv-x="197" 
d="M34 38q-6 18 -2 296t4 309q-2 26 30 42t65.5 5.5t35.5 -49.5l-5 -607q-6 -30 -73 -30q-50 0 -55 34zM-34 787q0 25 23.5 35t47.5 -3t24 -42q0 -28 -23.5 -39t-47.5 3t-24 46zM118 784q0 27 27 39t52.5 -1.5t22.5 -47.5q-3 -31 -28.5 -40t-49.5 6.5t-24 43.5z" />
    <glyph glyph-name="Ntilde" unicode="&#xd1;" horiz-adv-x="512" 
d="M383 224v445q3 21 27.5 30.5t46 0.5t19.5 -35q7 -91 5.5 -315.5t-5.5 -308.5q1 -20 -20.5 -30.5t-43.5 -10.5q-37 0 -80.5 59t-168.5 267q-20 34 -31 52l1 -305q0 -71 -51 -71q-44 0 -44 69q0 42 -4 271.5t-4 291.5q0 28 15.5 43.5t41.5 15.5q35 0 46 -23zM296 727h-2
q-18 1 -42 10.5t-41 17.5t-33 12t-23.5 -6t-6.5 -37q-15 4 -20.5 18.5t-1.5 32.5t13 35.5t22.5 29t26.5 10.5h2q18 -1 40.5 -9.5t39 -16t32 -11t24.5 6t10 34.5q15 -4 20.5 -18.5t1.5 -32.5t-13 -35.5t-22.5 -29t-26.5 -11.5z" />
    <glyph glyph-name="Ograve" unicode="&#xd2;" horiz-adv-x="558" 
d="M31 291q-2 52 2.5 103.5t20.5 108t44 99t77 70t113 27.5q59 0 106 -31t74 -80t41.5 -101t16.5 -103q3 -63 -7.5 -123.5t-36.5 -118.5t-77.5 -95.5t-123.5 -42.5q-72 0 -130.5 46t-87.5 110.5t-32 130.5zM192 487q-2 -20 -4 -49.5t-3.5 -79.5t2.5 -95.5t12 -88.5
t27.5 -68.5t47.5 -25.5q131 0 92 400q-2 8 -2 11v5q-3 24 -6.5 39.5t-12 38t-25 34.5t-40.5 12q-78 0 -88 -133zM342 753q-18 -23 -67.5 8t-55.5 61q-2 17 13.5 29t30.5 8q31 -6 57 -45t22 -61z" />
    <glyph glyph-name="Oacute" unicode="&#xd3;" horiz-adv-x="558" 
d="M31 291q-2 52 2.5 103.5t20.5 108t44 99t77 70t113 27.5q59 0 106 -31t74 -80t41.5 -101t16.5 -103q3 -63 -7.5 -123.5t-36.5 -118.5t-77.5 -95.5t-123.5 -42.5q-72 0 -130.5 46t-87.5 110.5t-32 130.5zM192 487q-2 -20 -4 -49.5t-3.5 -79.5t2.5 -95.5t12 -88.5
t27.5 -68.5t47.5 -25.5q131 0 92 400q-2 8 -2 11v5q-3 24 -6.5 39.5t-12 38t-25 34.5t-40.5 12q-78 0 -88 -133zM207 757q-4 22 22 61t57 45q15 4 30.5 -8t13.5 -29q-6 -30 -55.5 -61t-67.5 -8z" />
    <glyph glyph-name="Ocircumflex" unicode="&#xd4;" horiz-adv-x="558" 
d="M31 291q-2 52 2.5 103.5t20.5 108t44 99t77 70t113 27.5q59 0 106 -31t74 -80t41.5 -101t16.5 -103q3 -63 -7.5 -123.5t-36.5 -118.5t-77.5 -95.5t-123.5 -42.5q-72 0 -130.5 46t-87.5 110.5t-32 130.5zM192 487q-2 -20 -4 -49.5t-3.5 -79.5t2.5 -95.5t12 -88.5
t27.5 -68.5t47.5 -25.5q131 0 92 400q-2 8 -2 11v5q-3 24 -6.5 39.5t-12 38t-25 34.5t-40.5 12q-78 0 -88 -133zM152 761q1 33 51.5 83t74.5 50q17 0 71 -56.5t54 -63.5q-3 -34 -37 -34q-21 0 -42 17l-48 48q-3 -1 -35.5 -35t-57.5 -34q-31 0 -31 21v4z" />
    <glyph glyph-name="Otilde" unicode="&#xd5;" horiz-adv-x="558" 
d="M31 291q-2 52 2.5 103.5t20.5 108t44 99t77 70t113 27.5q59 0 106 -31t74 -80t41.5 -101t16.5 -103q3 -63 -7.5 -123.5t-36.5 -118.5t-77.5 -95.5t-123.5 -42.5q-72 0 -130.5 46t-87.5 110.5t-32 130.5zM192 487q-2 -20 -4 -49.5t-3.5 -79.5t2.5 -95.5t12 -88.5
t27.5 -68.5t47.5 -25.5q131 0 92 400q-2 8 -2 11v5q-3 24 -6.5 39.5t-12 38t-25 34.5t-40.5 12q-78 0 -88 -133zM320 737h-2q-18 1 -42 10.5t-41 17.5t-33 12t-23.5 -6t-6.5 -37q-15 4 -20.5 18.5t-1.5 32.5t13 35.5t22.5 29t26.5 10.5h2q18 -1 40.5 -9.5t39 -16t32 -11
t24.5 6t10 34.5q15 -4 20.5 -18.5t1.5 -32.5t-13 -35.5t-22.5 -29t-26.5 -11.5z" />
    <glyph glyph-name="Odieresis" unicode="&#xd6;" horiz-adv-x="558" 
d="M31 291q-2 52 2.5 103.5t20.5 108t44 99t77 70t113 27.5q59 0 106 -31t74 -80t41.5 -101t16.5 -103q3 -63 -7.5 -123.5t-36.5 -118.5t-77.5 -95.5t-123.5 -42.5q-72 0 -130.5 46t-87.5 110.5t-32 130.5zM192 487q-2 -20 -4 -49.5t-3.5 -79.5t2.5 -95.5t12 -88.5
t27.5 -68.5t47.5 -25.5q131 0 92 400q-2 8 -2 11v5q-3 24 -6.5 39.5t-12 38t-25 34.5t-40.5 12q-78 0 -88 -133zM146 787q0 25 24 35t47.5 -3t23.5 -42q0 -28 -23.5 -39t-47.5 3t-24 46zM298 784q0 27 27 39t52.5 -1.5t22.5 -47.5q-3 -31 -28.5 -40t-49.5 6.5t-24 43.5z" />
    <glyph glyph-name="Oslash" unicode="&#xd8;" horiz-adv-x="558" 
d="M31 291q-2 52 2.5 103.5t20.5 108t44 99t77 70t113 27.5q41 0 78 -16q26 55 46.5 53t10.5 -55l-1 -6q-1 -2 -2.5 -10.5t-3.5 -13.5q51 -45 79 -119.5t31 -147.5q3 -63 -7.5 -123.5t-36.5 -118.5t-77.5 -95.5t-123.5 -42.5q-57 0 -107 29q-15 -32 -32 -43.5t-23.5 4
t0.5 55.5q1 7 5 23q-42 42 -66.5 101.5t-26.5 117.5zM362 508q-15 -38 -63.5 -161.5t-85.5 -216.5q21 -50 61 -50q140 0 88 428zM192 487q-15 -141 -4 -247q124 303 144 356q-21 24 -52 24q-78 0 -88 -133z" />
    <glyph glyph-name="Ugrave" unicode="&#xd9;" horiz-adv-x="510" 
d="M469 628q1 -51 5 -177.5t5 -194.5q1 -126 -57 -189t-165 -63q-102 0 -160.5 67t-61.5 185q-2 72 -3 214t-2 187q2 24 15 34t41 10q26 0 47 -3q30 -7 30 -70q0 -21 12 -372q4 -50 12.5 -88t24 -63.5t36.5 -23.5q31 -5 51.5 9.5t30 45.5t13.5 75t2.5 96.5t-3.5 111
t-4.5 119t0.5 119.5q1 24 13.5 34t40.5 10q26 0 47 -3q30 -7 30 -70zM314 745q-18 -23 -67.5 8t-55.5 61q-2 17 13.5 29t30.5 8q31 -6 57 -45t22 -61z" />
    <glyph glyph-name="Uacute" unicode="&#xda;" horiz-adv-x="510" 
d="M469 628q1 -51 5 -177.5t5 -194.5q1 -126 -57 -189t-165 -63q-102 0 -160.5 67t-61.5 185q-2 72 -3 214t-2 187q2 24 15 34t41 10q26 0 47 -3q30 -7 30 -70q0 -21 12 -372q4 -50 12.5 -88t24 -63.5t36.5 -23.5q31 -5 51.5 9.5t30 45.5t13.5 75t2.5 96.5t-3.5 111
t-4.5 119t0.5 119.5q1 24 13.5 34t40.5 10q26 0 47 -3q30 -7 30 -70zM179 749q-4 22 22 61t57 45q15 4 30.5 -8t13.5 -29q-6 -30 -55.5 -61t-67.5 -8z" />
    <glyph glyph-name="Ucircumflex" unicode="&#xdb;" horiz-adv-x="510" 
d="M469 628q1 -51 5 -177.5t5 -194.5q1 -126 -57 -189t-165 -63q-102 0 -160.5 67t-61.5 185q-2 72 -3 214t-2 187q2 24 15 34t41 10q26 0 47 -3q30 -7 30 -70q0 -21 12 -372q4 -50 12.5 -88t24 -63.5t36.5 -23.5q31 -5 51.5 9.5t30 45.5t13.5 75t2.5 96.5t-3.5 111
t-4.5 119t0.5 119.5q1 24 13.5 34t40.5 10q26 0 47 -3q30 -7 30 -70zM124 753q1 33 51.5 83t74.5 50q17 0 71 -56.5t54 -63.5q-3 -34 -37 -34q-21 0 -42 17l-48 48q-3 -1 -35.5 -35t-57.5 -34q-31 0 -31 21v4z" />
    <glyph glyph-name="Udieresis" unicode="&#xdc;" horiz-adv-x="510" 
d="M469 628q1 -51 5 -177.5t5 -194.5q1 -126 -57 -189t-165 -63q-102 0 -160.5 67t-61.5 185q-2 72 -3 214t-2 187q2 24 15 34t41 10q26 0 47 -3q30 -7 30 -70q0 -21 12 -372q4 -50 12.5 -88t24 -63.5t36.5 -23.5q31 -5 51.5 9.5t30 45.5t13.5 75t2.5 96.5t-3.5 111
t-4.5 119t0.5 119.5q1 24 13.5 34t40.5 10q26 0 47 -3q30 -7 30 -70zM118 779q0 25 24 35t47.5 -3t23.5 -42q0 -28 -23.5 -39t-47.5 3t-24 46zM270 776q0 27 27 39t52.5 -1.5t22.5 -47.5q-3 -31 -28.5 -40t-49.5 6.5t-24 43.5z" />
    <glyph glyph-name="germandbls" unicode="&#xdf;" horiz-adv-x="537" 
d="M257 162q23 6 41 -16q16 -19 -1 -28q-22 -4 -27.5 -21t7.5 -28q65 -12 88 52q21 60 -7 128q-30 72 -90 81q-10 2 -21 1q-33 11 -27 45.5t41 37.5h1l2 -1q28 14 43 43.5t15 63.5q0 59 -57 95q-46 29 -79 15q-19 -9 -21 -30q-3 -57 1 -329t-2 -287q-4 -39 -50 -39h-5
q-3 0 -22 1t-23 1q-29 7 -29 60v2q-5 242 -5 493q0 41 1.5 64.5t6.5 50t15.5 39.5t29 25.5t47 17t68.5 4.5q61 0 115.5 -16t96 -59t41.5 -107q0 -105 -56 -158q115 -42 111 -201q-1 -44 -28 -82.5t-65.5 -58t-83.5 -22.5t-82 25q-19 20 -29 48.5t-1 55.5t40 34z" />
    <glyph glyph-name="agrave" unicode="&#xe0;" horiz-adv-x="494" 
d="M330 186l-128 -1l-43 -156q-23 -31 -75 -31q-36 0 -44 23q11 60 37 167q-11 0 -18 1q-29 8 -29 38q0 13 2.5 21.5t9.5 13t10 6.5t15 4.5t14 2.5q12 0 18 1q61 231 94 351q14 50 51 62.5t61 -35.5q10 -38 43 -162t49 -186t37 -147.5t30 -136.5q-6 -22 -27 -25.5t-40.5 7.5
t-21.5 25q-3 6 -45 157zM266 430q-9 -33 -40 -152q47 0 80 -1q-21 81 -38 153h-2zM318 745q-18 -23 -67.5 8t-55.5 61q-2 17 13.5 29t30.5 8q31 -6 57 -45t22 -61z" />
    <glyph glyph-name="aacute" unicode="&#xe1;" horiz-adv-x="494" 
d="M330 186l-128 -1l-43 -156q-23 -31 -75 -31q-36 0 -44 23q11 60 37 167q-11 0 -18 1q-29 8 -29 38q0 13 2.5 21.5t9.5 13t10 6.5t15 4.5t14 2.5q12 0 18 1q61 231 94 351q14 50 51 62.5t61 -35.5q10 -38 43 -162t49 -186t37 -147.5t30 -136.5q-6 -22 -27 -25.5t-40.5 7.5
t-21.5 25q-3 6 -45 157zM266 430q-9 -33 -40 -152q47 0 80 -1q-21 81 -38 153h-2zM183 749q-4 22 22 61t57 45q15 4 30.5 -8t13.5 -29q-6 -30 -55.5 -61t-67.5 -8z" />
    <glyph glyph-name="acircumflex" unicode="&#xe2;" horiz-adv-x="494" 
d="M330 186l-128 -1l-43 -156q-23 -31 -75 -31q-36 0 -44 23q11 60 37 167q-11 0 -18 1q-29 8 -29 38q0 13 2.5 21.5t9.5 13t10 6.5t15 4.5t14 2.5q12 0 18 1q61 231 94 351q14 50 51 62.5t61 -35.5q10 -38 43 -162t49 -186t37 -147.5t30 -136.5q-6 -22 -27 -25.5t-40.5 7.5
t-21.5 25q-3 6 -45 157zM266 430q-9 -33 -40 -152q47 0 80 -1q-21 81 -38 153h-2zM128 753q1 33 51.5 83t74.5 50q17 0 71 -56.5t54 -63.5q-3 -34 -37 -34q-21 0 -42 17l-48 48q-3 -1 -35.5 -35t-57.5 -34q-31 0 -31 21v4z" />
    <glyph glyph-name="atilde" unicode="&#xe3;" horiz-adv-x="494" 
d="M330 186l-128 -1l-43 -156q-23 -31 -75 -31q-36 0 -44 23q11 60 37 167q-11 0 -18 1q-29 8 -29 38q0 13 2.5 21.5t9.5 13t10 6.5t15 4.5t14 2.5q12 0 18 1q61 231 94 351q14 50 51 62.5t61 -35.5q10 -38 43 -162t49 -186t37 -147.5t30 -136.5q-6 -22 -27 -25.5t-40.5 7.5
t-21.5 25q-3 6 -45 157zM266 430q-9 -33 -40 -152q47 0 80 -1q-21 81 -38 153h-2zM296 729h-2q-18 1 -42 10.5t-41 17.5t-33 12t-23.5 -6t-6.5 -37q-15 4 -20.5 18.5t-1.5 32.5t13 35.5t22.5 29t26.5 10.5h2q18 -1 40.5 -9.5t39 -16t32 -11t24.5 6t10 34.5q15 -4 20.5 -18.5
t1.5 -32.5t-13 -35.5t-22.5 -29t-26.5 -11.5z" />
    <glyph glyph-name="adieresis" unicode="&#xe4;" horiz-adv-x="494" 
d="M330 186l-128 -1l-43 -156q-23 -31 -75 -31q-36 0 -44 23q11 60 37 167q-11 0 -18 1q-29 8 -29 38q0 13 2.5 21.5t9.5 13t10 6.5t15 4.5t14 2.5q12 0 18 1q61 231 94 351q14 50 51 62.5t61 -35.5q10 -38 43 -162t49 -186t37 -147.5t30 -136.5q-6 -22 -27 -25.5t-40.5 7.5
t-21.5 25q-3 6 -45 157zM266 430q-9 -33 -40 -152q47 0 80 -1q-21 81 -38 153h-2zM122 779q0 25 24 35t47.5 -3t23.5 -42q0 -28 -23.5 -39t-47.5 3t-24 46zM274 776q0 27 27 39t52.5 -1.5t22.5 -47.5q-3 -31 -28.5 -40t-49.5 6.5t-24 43.5z" />
    <glyph glyph-name="aring" unicode="&#xe5;" horiz-adv-x="494" 
d="M330 186l-128 -1l-43 -156q-23 -31 -75 -31q-36 0 -44 23q11 60 37 167q-11 0 -18 1q-29 8 -29 38q0 13 2.5 21.5t9.5 13t10 6.5t15 4.5t14 2.5q12 0 18 1q61 231 94 351q14 50 51 62.5t61 -35.5q10 -38 43 -162t49 -186t37 -147.5t30 -136.5q-6 -22 -27 -25.5t-40.5 7.5
t-21.5 25q-3 6 -45 157zM266 430q-9 -33 -40 -152q47 0 80 -1q-21 81 -38 153h-2zM254 719q-38 1 -64 19.5t-31 44.5t1 51.5t31 43t61 17.5q65 0 91.5 -45t0 -89t-89.5 -42zM258 859q-21 3 -26 -32q-6 -42 11 -67q6 -9 14 -9q12 0 20 25.5t3.5 52.5t-22.5 30z" />
    <glyph glyph-name="ae" unicode="&#xe6;" horiz-adv-x="608" 
d="M272 18l-2 167h-68l-43 -156q-23 -31 -75 -31q-36 0 -44 23q11 60 37 167q-11 0 -18 1q-29 8 -29 38q0 13 2.5 21.5t9.5 13t10 6.5t15 4.5t14 2.5q12 0 18 1q5 19 42.5 151.5t51.5 199.5q4 17 13 29t26 19t33.5 11t45 4.5t50 0.5t59 -1t62.5 -1h2q50 0 50 -33
q0 -24 -19 -36t-42 -13.5t-42 -3t-19 -6.5v-320l7 -6h133q9 0 16 -12.5t7 -22.5q-2 -18 -11 -27t-43.5 -15t-104.5 -6q-4 0 -4 -3q0 -1 -1 -3.5t-2 -5.5l-1 -2v-90h144q12 0 19 -12t7 -25q0 -19 -14 -29.5t-34 -10.5h-251q-3 2 -4 4q-3 3 -3 7zM286 588l-74 -310h64z" />
    <glyph glyph-name="ccedilla" unicode="&#xe7;" horiz-adv-x="476" 
d="M249 -215q-47 0 -78 32q-25 25 -5 38q11 6 32 6q13 0 32.5 -9.5t32.5 -9.5q17 0 21 13q-1 16 -20.5 28.5t-41 19.5t-34 19t-1.5 27l37 54q-83 18 -138.5 104t-55.5 197q0 50 3.5 91.5t13.5 90.5t30.5 85.5t51 68t79 46.5t110.5 13q42 -2 70 -19t48 -58q13 -53 -3.5 -77.5
t-50.5 -22.5q-28 1 -39.5 16t-10.5 32.5t-6 32t-26 15.5q-46 2 -80 -54t-43.5 -136.5t-3.5 -161t40 -137.5t87 -57q25 0 38 14.5t14.5 31.5t12 31.5t31.5 14.5q75 0 36 -82q-41 -74 -141 -82q-9 -19 -26 -43q21 -8 30 -12t24.5 -12.5t24 -18.5t13.5 -23v1q7 -14 3 -33
q-6 -36 -37.5 -55t-73.5 -19z" />
    <glyph glyph-name="egrave" unicode="&#xe8;" horiz-adv-x="422" 
d="M78 303q-27 5 -37.5 12.5t-10.5 29.5q0 17 9.5 24t23.5 12t19 14v59q0 35 -2 104.5t-2 104.5q0 17 13.5 26t31.5 9q42 0 75 0.5t50.5 1t28 1t15.5 0.5h4h2q50 0 50 -33q0 -24 -19 -36t-42 -13.5t-42 -3t-19 -6.5v-210l7 -6h133q9 0 16 -12.5t7 -22.5q-2 -18 -11 -27
t-43.5 -15t-104.5 -6q-4 0 -4 -3q0 -1 -1 -3.5t-2 -5.5l-1 -2v-200h144q12 0 19 -12t7 -25q0 -19 -14 -29.5t-34 -10.5h-251q-3 2 -4 4q-3 3 -3 7zM276 753q-18 -23 -67.5 8t-55.5 61q-2 17 13.5 29t30.5 8q31 -6 57 -45t22 -61z" />
    <glyph glyph-name="eacute" unicode="&#xe9;" horiz-adv-x="422" 
d="M78 303q-27 5 -37.5 12.5t-10.5 29.5q0 17 9.5 24t23.5 12t19 14v59q0 35 -2 104.5t-2 104.5q0 17 13.5 26t31.5 9q42 0 75 0.5t50.5 1t28 1t15.5 0.5h4h2q50 0 50 -33q0 -24 -19 -36t-42 -13.5t-42 -3t-19 -6.5v-210l7 -6h133q9 0 16 -12.5t7 -22.5q-2 -18 -11 -27
t-43.5 -15t-104.5 -6q-4 0 -4 -3q0 -1 -1 -3.5t-2 -5.5l-1 -2v-200h144q12 0 19 -12t7 -25q0 -19 -14 -29.5t-34 -10.5h-251q-3 2 -4 4q-3 3 -3 7zM141 757q-4 22 22 61t57 45q15 4 30.5 -8t13.5 -29q-6 -30 -55.5 -61t-67.5 -8z" />
    <glyph glyph-name="ecircumflex" unicode="&#xea;" horiz-adv-x="422" 
d="M78 303q-27 5 -37.5 12.5t-10.5 29.5q0 17 9.5 24t23.5 12t19 14v59q0 35 -2 104.5t-2 104.5q0 17 13.5 26t31.5 9q42 0 75 0.5t50.5 1t28 1t15.5 0.5h4h2q50 0 50 -33q0 -24 -19 -36t-42 -13.5t-42 -3t-19 -6.5v-210l7 -6h133q9 0 16 -12.5t7 -22.5q-2 -18 -11 -27
t-43.5 -15t-104.5 -6q-4 0 -4 -3q0 -1 -1 -3.5t-2 -5.5l-1 -2v-200h144q12 0 19 -12t7 -25q0 -19 -14 -29.5t-34 -10.5h-251q-3 2 -4 4q-3 3 -3 7zM86 761q1 33 51.5 83t74.5 50q17 0 71 -56.5t54 -63.5q-3 -34 -37 -34q-21 0 -42 17l-48 48q-3 -1 -35.5 -35t-57.5 -34
q-31 0 -31 21v4z" />
    <glyph glyph-name="edieresis" unicode="&#xeb;" horiz-adv-x="422" 
d="M78 303q-27 5 -37.5 12.5t-10.5 29.5q0 17 9.5 24t23.5 12t19 14v59q0 35 -2 104.5t-2 104.5q0 17 13.5 26t31.5 9q42 0 75 0.5t50.5 1t28 1t15.5 0.5h4h2q50 0 50 -33q0 -24 -19 -36t-42 -13.5t-42 -3t-19 -6.5v-210l7 -6h133q9 0 16 -12.5t7 -22.5q-2 -18 -11 -27
t-43.5 -15t-104.5 -6q-4 0 -4 -3q0 -1 -1 -3.5t-2 -5.5l-1 -2v-200h144q12 0 19 -12t7 -25q0 -19 -14 -29.5t-34 -10.5h-251q-3 2 -4 4q-3 3 -3 7zM80 787q0 25 24 35t47.5 -3t23.5 -42q0 -28 -23.5 -39t-47.5 3t-24 46zM232 784q0 27 27 39t52.5 -1.5t22.5 -47.5
q-3 -31 -28.5 -40t-49.5 6.5t-24 43.5z" />
    <glyph glyph-name="igrave" unicode="&#xec;" horiz-adv-x="204" 
d="M45 21q-7 63 -9.5 155.5t-3.5 256t-2 200.5q4 44 51 44h5q26 0 47 -3q30 -7 30 -70q11 -495 11 -519v-57q-17 -30 -72 -30q-41 0 -57 23zM152 739q-18 -23 -67.5 8t-55.5 61q-2 17 13.5 29t30.5 8q31 -6 57 -45t22 -61z" />
    <glyph glyph-name="iacute" unicode="&#xed;" horiz-adv-x="204" 
d="M45 21q-7 63 -9.5 155.5t-3.5 256t-2 200.5q4 44 51 44h5q26 0 47 -3q30 -7 30 -70q11 -495 11 -519v-57q-17 -30 -72 -30q-41 0 -57 23zM17 743q-4 22 22 61t57 45q15 4 30.5 -8t13.5 -29q-6 -30 -55.5 -61t-67.5 -8z" />
    <glyph glyph-name="icircumflex" unicode="&#xee;" horiz-adv-x="204" 
d="M45 21q-7 63 -9.5 155.5t-3.5 256t-2 200.5q4 44 51 44h5q26 0 47 -3q30 -7 30 -70q11 -495 11 -519v-57q-17 -30 -72 -30q-41 0 -57 23zM-38 747q1 33 51.5 83t74.5 50q17 0 71 -56.5t54 -63.5q-3 -34 -37 -34q-21 0 -42 17l-48 48q-3 -1 -35.5 -35t-57.5 -34
q-31 0 -31 21v4z" />
    <glyph glyph-name="idieresis" unicode="&#xef;" horiz-adv-x="204" 
d="M45 21q-7 63 -9.5 155.5t-3.5 256t-2 200.5q4 44 51 44h5q26 0 47 -3q30 -7 30 -70q11 -495 11 -519v-57q-17 -30 -72 -30q-41 0 -57 23zM-44 773q0 25 23.5 35t47.5 -3t24 -42q0 -28 -23.5 -39t-47.5 3t-24 46zM108 770q0 27 27 39t52.5 -1.5t22.5 -47.5
q-3 -31 -28.5 -40t-49.5 6.5t-24 43.5z" />
    <glyph glyph-name="ntilde" unicode="&#xf1;" horiz-adv-x="472" 
d="M128 408q-1 -33 5 -199.5t-4 -184.5q-17 -22 -49 -22q-33 0 -44 26q-7 91 -5.5 315.5t5.5 308.5q-1 20 20.5 30.5t43.5 10.5q17 0 29 -8t29.5 -36t34.5 -61.5t57.5 -107t84.5 -149.5h4v287q0 71 51 71q44 0 44 -69q0 -42 4 -271.5t4 -291.5q0 -28 -15.5 -43.5
t-41.5 -15.5q-35 0 -46 23zM280 723h-2q-18 1 -42 10.5t-41 17.5t-33 12t-23.5 -6t-6.5 -37q-15 4 -20.5 18.5t-1.5 32.5t13 35.5t22.5 29t26.5 10.5h2q18 -1 40.5 -9.5t39 -16t32 -11t24.5 6t10 34.5q15 -4 20.5 -18.5t1.5 -32.5t-13 -35.5t-22.5 -29t-26.5 -11.5z" />
    <glyph glyph-name="ograve" unicode="&#xf2;" 
d="M30 355q0 58 12.5 114t40.5 109.5t81.5 85.5t126.5 30q59 -2 102 -35t65 -85.5t31.5 -105t9.5 -106.5q0 -46 -6 -92t-22.5 -96t-41.5 -87t-68 -60.5t-97 -22.5q-62 1 -109 36t-73 89t-39 112t-13 114zM271 624q-45 -1 -67 -85t-19 -185t22.5 -185.5t47.5 -87.5
q48 -13 77 77q36 108 26 262q-9 156 -60 195q-12 9 -27 9zM328 749q-18 -23 -67.5 8t-55.5 61q-2 17 13.5 29t30.5 8q31 -6 57 -45t22 -61z" />
    <glyph glyph-name="oacute" unicode="&#xf3;" 
d="M30 355q0 58 12.5 114t40.5 109.5t81.5 85.5t126.5 30q59 -2 102 -35t65 -85.5t31.5 -105t9.5 -106.5q0 -46 -6 -92t-22.5 -96t-41.5 -87t-68 -60.5t-97 -22.5q-62 1 -109 36t-73 89t-39 112t-13 114zM271 624q-45 -1 -67 -85t-19 -185t22.5 -185.5t47.5 -87.5
q48 -13 77 77q36 108 26 262q-9 156 -60 195q-12 9 -27 9zM193 753q-4 22 22 61t57 45q15 4 30.5 -8t13.5 -29q-6 -30 -55.5 -61t-67.5 -8z" />
    <glyph glyph-name="ocircumflex" unicode="&#xf4;" 
d="M30 355q0 58 12.5 114t40.5 109.5t81.5 85.5t126.5 30q59 -2 102 -35t65 -85.5t31.5 -105t9.5 -106.5q0 -46 -6 -92t-22.5 -96t-41.5 -87t-68 -60.5t-97 -22.5q-62 1 -109 36t-73 89t-39 112t-13 114zM271 624q-45 -1 -67 -85t-19 -185t22.5 -185.5t47.5 -87.5
q48 -13 77 77q36 108 26 262q-9 156 -60 195q-12 9 -27 9zM138 757q1 33 51.5 83t74.5 50q17 0 71 -56.5t54 -63.5q-3 -34 -37 -34q-21 0 -42 17l-48 48q-3 -1 -35.5 -35t-57.5 -34q-31 0 -31 21v4z" />
    <glyph glyph-name="otilde" unicode="&#xf5;" 
d="M30 355q0 58 12.5 114t40.5 109.5t81.5 85.5t126.5 30q59 -2 102 -35t65 -85.5t31.5 -105t9.5 -106.5q0 -46 -6 -92t-22.5 -96t-41.5 -87t-68 -60.5t-97 -22.5q-62 1 -109 36t-73 89t-39 112t-13 114zM271 624q-45 -1 -67 -85t-19 -185t22.5 -185.5t47.5 -87.5
q48 -13 77 77q36 108 26 262q-9 156 -60 195q-12 9 -27 9zM306 733h-2q-18 1 -42 10.5t-41 17.5t-33 12t-23.5 -6t-6.5 -37q-15 4 -20.5 18.5t-1.5 32.5t13 35.5t22.5 29t26.5 10.5h2q18 -1 40.5 -9.5t39 -16t32 -11t24.5 6t10 34.5q15 -4 20.5 -18.5t1.5 -32.5t-13 -35.5
t-22.5 -29t-26.5 -11.5z" />
    <glyph glyph-name="odieresis" unicode="&#xf6;" 
d="M30 355q0 58 12.5 114t40.5 109.5t81.5 85.5t126.5 30q59 -2 102 -35t65 -85.5t31.5 -105t9.5 -106.5q0 -46 -6 -92t-22.5 -96t-41.5 -87t-68 -60.5t-97 -22.5q-62 1 -109 36t-73 89t-39 112t-13 114zM271 624q-45 -1 -67 -85t-19 -185t22.5 -185.5t47.5 -87.5
q48 -13 77 77q36 108 26 262q-9 156 -60 195q-12 9 -27 9zM132 783q0 25 24 35t47.5 -3t23.5 -42q0 -28 -23.5 -39t-47.5 3t-24 46zM284 780q0 27 27 39t52.5 -1.5t22.5 -47.5q-3 -31 -28.5 -40t-49.5 6.5t-24 43.5z" />
    <glyph glyph-name="oslash" unicode="&#xf8;" 
d="M30 355q0 58 12.5 114t40.5 109.5t81.5 85.5t126.5 30q39 -1 72 -17q17 44 41 50q18 6 20 -20q2 -13 -2 -32q-2 -13 -10 -35q46 -47 66.5 -123.5t20.5 -154.5q0 -46 -6 -92t-22.5 -96t-41.5 -87t-68 -60.5t-97 -22.5q-51 1 -92 25q-15 -30 -31 -40t-22.5 5t0.5 55
q2 14 4 19q-47 51 -70 130.5t-23 156.5zM352 482l-137 -346q18 -54 40 -55q41 -11 69.5 56t33 160.5t-5.5 184.5zM271 624q-56 -2 -75 -120t-4 -253q90 214 133 327q-22 46 -54 46z" />
    <glyph glyph-name="ugrave" unicode="&#xf9;" horiz-adv-x="485" 
d="M447 622q1 -73 3.5 -203.5t3.5 -188.5q1 -123 -58.5 -176t-161.5 -50q-103 -3 -154 53.5t-49 165.5q3 402 3 423q4 47 50 47h5q28 0 46 -3q32 -8 29 -74q5 -332 4 -414q0 -63 20.5 -95.5t46.5 -30.5q81 4 81 156q-1 76 0 227t1 193q4 47 50 47h5q28 0 46 -3q32 -8 29 -74
zM306 743q-18 -23 -67.5 8t-55.5 61q-2 17 13.5 29t30.5 8q31 -6 57 -45t22 -61z" />
    <glyph glyph-name="uacute" unicode="&#xfa;" horiz-adv-x="485" 
d="M447 622q1 -73 3.5 -203.5t3.5 -188.5q1 -123 -58.5 -176t-161.5 -50q-103 -3 -154 53.5t-49 165.5q3 402 3 423q4 47 50 47h5q28 0 46 -3q32 -8 29 -74q5 -332 4 -414q0 -63 20.5 -95.5t46.5 -30.5q81 4 81 156q-1 76 0 227t1 193q4 47 50 47h5q28 0 46 -3q32 -8 29 -74
zM171 747q-4 22 22 61t57 45q15 4 30.5 -8t13.5 -29q-6 -30 -55.5 -61t-67.5 -8z" />
    <glyph glyph-name="ucircumflex" unicode="&#xfb;" horiz-adv-x="485" 
d="M447 622q1 -73 3.5 -203.5t3.5 -188.5q1 -123 -58.5 -176t-161.5 -50q-103 -3 -154 53.5t-49 165.5q3 402 3 423q4 47 50 47h5q28 0 46 -3q32 -8 29 -74q5 -332 4 -414q0 -63 20.5 -95.5t46.5 -30.5q81 4 81 156q-1 76 0 227t1 193q4 47 50 47h5q28 0 46 -3q32 -8 29 -74
zM116 751q1 33 51.5 83t74.5 50q17 0 71 -56.5t54 -63.5q-3 -34 -37 -34q-21 0 -42 17l-48 48q-3 -1 -35.5 -35t-57.5 -34q-31 0 -31 21v4z" />
    <glyph glyph-name="udieresis" unicode="&#xfc;" horiz-adv-x="485" 
d="M447 622q1 -73 3.5 -203.5t3.5 -188.5q1 -123 -58.5 -176t-161.5 -50q-103 -3 -154 53.5t-49 165.5q3 402 3 423q4 47 50 47h5q28 0 46 -3q32 -8 29 -74q5 -332 4 -414q0 -63 20.5 -95.5t46.5 -30.5q81 4 81 156q-1 76 0 227t1 193q4 47 50 47h5q28 0 46 -3q32 -8 29 -74
zM110 777q0 25 24 35t47.5 -3t23.5 -42q0 -28 -23.5 -39t-47.5 3t-24 46zM262 774q0 27 27 39t52.5 -1.5t22.5 -47.5q-3 -31 -28.5 -40t-49.5 6.5t-24 43.5z" />
    <glyph glyph-name="Euro" unicode="&#x20ac;" horiz-adv-x="500" 
d="M36 292q0 16 9 23.5t31 11.5v35q0 23 1 35q-47 0 -47 34q0 16 13 24t45 11q22 98 84 160.5t161 62.5q22 0 33 -0.5t31 -3.5t29.5 -9.5t17.5 -20t7 -32.5q-1 -31 -13 -46t-31.5 -14t-35.5 5.5t-37 14t-24 10.5q-40 13 -66.5 -22.5t-36.5 -102.5q71 0 121 1q52 0 52 -41
q0 -15 -11.5 -22.5t-26.5 -7.5q-95 0 -141 -1q-1 -29 2 -67q52 0 88 1q45 0 45 -42q0 -15 -10 -22.5t-23 -7.5q-61 0 -90 -1q24 -119 81 -152q11 -8 24 -8q16 0 32 12.5t28 26.5t24.5 25t27.5 6.5t32 -28.5q21 -29 -10 -65.5t-86.5 -57t-99.5 -9.5q-157 38 -184 249
q-46 0 -46 35z" />
    </font>
</defs>
</svg>
